<svg id="easy_Image" data-name="easy Image" xmlns="http://www.w3.org/2000/svg" viewBox="0 0 71.58 27.99"><title>Artboard 1</title><path d="M42.73,7.06c.15.07.28.18.41.18a5.8,5.8,0,0,0,2.33-.34c1.12-.46,2.27-.83,3.43-1.19a1.39,1.39,0,0,1,1.27.12.32.32,0,0,0,.22.08,2,2,0,0,1,1.83.69,3.09,3.09,0,0,1,1.11,2.24c0,1.44-.87,2.48-1.56,3.6a2.11,2.11,0,0,1-.5.43c-.81.67-1.6,1.35-2.42,2-.59.46-.71.43-1.27-.09a.61.61,0,0,1-.16-.89,2.61,2.61,0,0,1,.73-.75,3.42,3.42,0,0,0,1.62-1.51,1.31,1.31,0,0,1,.42-.5,2.71,2.71,0,0,0,1-1.8,1.12,1.12,0,0,0-.76-1.27,2.76,2.76,0,0,0-2.35.16,10.08,10.08,0,0,1-1.6.65l-.59.25a4.06,4.06,0,0,1-2.36.42c-.58-.09-1.17-.16-1.76-.19a1.5,1.5,0,0,1-1.33-1.2A2.2,2.2,0,0,1,40.6,7c.17-.63.41-1.24.64-1.94-1.42.4-2.92.49-3.93,1.65,0,.3,0,.59,0,.87a.44.44,0,0,0,.07.28c.51.48.27,1.13.38,1.69a4.1,4.1,0,0,1-.65,2.41c-.1.24-.18.49-.25.74a1.65,1.65,0,0,1-.74,1.05s-.08,0-.1.07a3.09,3.09,0,0,1-2.12,1.44l-2.09-.6-.06,0a5.35,5.35,0,0,1-2.16-1.9,2.36,2.36,0,0,1-.24-1.21,2.93,2.93,0,0,1,.56-1.8c.52-.65,1.07-1.27,1.6-1.91.26-.32.5-.66.78-1s.52-.47.81-.72c-.3-.26-.55-.45-.94-.34a.64.64,0,0,1-.46,0c-.63-.4-1.23-.07-1.77.13a12.08,12.08,0,0,0-1.62,1,3.61,3.61,0,0,0-1.51,1.51c-.14.27-.47.43-.64.7a12.17,12.17,0,0,1-1.73,2.31,7.83,7.83,0,0,1-1.54,1.47,16,16,0,0,1-2,1.22,3.61,3.61,0,0,1-2.19.4,2,2,0,0,0-.69.1c-.71.11-1.41.23-2.12.31-.18,0-.38-.12-.57-.17-.48-.14-1-.25-1.43-.42a2.8,2.8,0,0,1-.88-.48,1.38,1.38,0,0,0-1.43-.24c-.74.2-1.51.28-2.27.41a3.85,3.85,0,0,0-.48.06,4.47,4.47,0,0,1-3.35-.51,12.7,12.7,0,0,1-2.26-1.34A5.11,5.11,0,0,1,1.34,10c-.22-.59-.18-.76.4-1l.48-.21c1,.31,1,.35,1.27.92a8.06,8.06,0,0,1,1,.7A6,6,0,0,0,6.79,11.7,3.73,3.73,0,0,0,8,11.82c.66,0,1.31-.06,2-.11a3.69,3.69,0,0,0,.57-.13c0-.12,0-.19,0-.23a4.24,4.24,0,0,1-.75-2.76,9.48,9.48,0,0,1,1-4A3.45,3.45,0,0,1,11.13,4a5.11,5.11,0,0,1,.45-.61,5.64,5.64,0,0,1,.54-.45,6.85,6.85,0,0,1,.54-.45A8.73,8.73,0,0,1,14,1.61a4.89,4.89,0,0,1,2.54-.38,2.28,2.28,0,0,1,1.24.55A11.7,11.7,0,0,0,19,2.56a2.63,2.63,0,0,1,1.33,2,4.42,4.42,0,0,1-.38,2.63,7.32,7.32,0,0,1-.66,1.32A13.27,13.27,0,0,1,18.1,9.81a.46.46,0,0,1-.3.17c-.53-.05-.67.24-.65.71l-1.77,1.21c.09.11.15.26.26.3a2.61,2.61,0,0,0,1.78.24,16.66,16.66,0,0,1,2-.23,8,8,0,0,0,1.08-.28c.09,0,.17-.11.26-.14a3.61,3.61,0,0,0,1.79-1.51A22.89,22.89,0,0,1,24.1,8.4c.2-.24.36-.52.55-.76a19.86,19.86,0,0,1,1.53-1.89,17.34,17.34,0,0,1,1.87-1.47,5.9,5.9,0,0,1,2.16-1,2.56,2.56,0,0,1,1.41,0c.32.1.69,0,1,.15a11.56,11.56,0,0,1,1.67.77,1.54,1.54,0,0,0,1.65.14,8.51,8.51,0,0,1,3-1.08,12.52,12.52,0,0,0,2-.64c1.24-.33,2.5-.62,3.75-.91a7.87,7.87,0,0,1,1.69-.23l.67.47s0,0,0,0c.21.91-.44,1.32-1.06,1.7-.33.2-.75.25-1.07.45A4,4,0,0,0,44,5c-.43.56-.8,1.17-1.19,1.76A2.11,2.11,0,0,0,42.73,7.06ZM12.65,6a2.37,2.37,0,0,1-.44,1.34.89.89,0,0,0-.07.62c.1.69.26,1.38.34,2.08a.9.9,0,0,0,.71.87c.66-.42,1.37-.84,2-1.32.36-.26.61-.67,1-.93a4.18,4.18,0,0,0,1.59-2.1A3.64,3.64,0,0,0,18,4.12c-.19-.1-.38-.18-.54-.29s-.31-.25-.48-.36a1.76,1.76,0,0,0-1.58-.19c-.25.15-.53.24-.78.38a2.06,2.06,0,0,0-.67.45c-.31.41-.53.88-.81,1.31A6.37,6.37,0,0,1,12.65,6ZM34.41,7.87c-.26.29-.45.51-.65.71-.37.38-.77.74-1.13,1.14a4.54,4.54,0,0,0-.64.89,12.94,12.94,0,0,0-.51,1.27,2.14,2.14,0,0,0,.4.56,6.07,6.07,0,0,0,.93.51c.94.5,1.79.32,2.17-.52a12.87,12.87,0,0,0,.69-2,3.92,3.92,0,0,0-.44-2.76Z"/><path d="M66.32,9.29a1.79,1.79,0,0,0-.25.31,5.48,5.48,0,0,1-1.47,1.62c-.13.12-.23.26-.36.38s-.3.38-.48.42c-.81.19-1.31.86-2,1.24a1.78,1.78,0,0,1-1,.33,9.22,9.22,0,0,1-2.49-.06,5.86,5.86,0,0,1-2-1.25,4.36,4.36,0,0,1-1-2A3.26,3.26,0,0,1,55.36,9a11.79,11.79,0,0,1,.53-2.8,3.44,3.44,0,0,1,1.06-1.89,1.42,1.42,0,0,0,.32-.5,2.41,2.41,0,0,1,1-1.18,2.51,2.51,0,0,0,.52-.42c.4.14.73.24,1.05.37a.49.49,0,0,1,.3.76c-.38.53-.78,1-1.19,1.55a1.45,1.45,0,0,1-.37.25c-.29.83-.21,1.77-.86,2.32a7.68,7.68,0,0,0-.25,1.23,8.53,8.53,0,0,0,.11,1.65.82.82,0,0,0,.44.52,7.45,7.45,0,0,0,1.69.55,1.78,1.78,0,0,0,1.15-.23,10.89,10.89,0,0,0,2.23-1.46,5.17,5.17,0,0,1,.68-.47A.78.78,0,0,0,64,9a7.28,7.28,0,0,1,1.13-1.73c.39-.49.67-1.07,1-1.59s.87-1.15,1.28-1.73c.22-.32.37-.68.61-1s.61-.71.95-1.09l1.34.41c0,.31,0,.7.07,1.09,0,0,0,0,0,.06A9.1,9.1,0,0,1,69.3,7.83c-.23.52-.44,1-.65,1.56-.09.33-.19.66-.27,1s-.06.59-.15.87c-.17.53-.39,1-.57,1.56a1.29,1.29,0,0,0-.06.41,3.32,3.32,0,0,1-.35,1.25,19.29,19.29,0,0,0-.66,2.16c-.08.28-.13.58-.19.87-.1.48-.12,1-.2,1.46a18.26,18.26,0,0,1-.76,2.49,1.51,1.51,0,0,0-.15.43A1.25,1.25,0,0,1,64.73,23c.15,1.19-.57,2.1-1,3.07l-.69.31a.74.74,0,0,1-1-.21l-.59-.68A16.34,16.34,0,0,1,62,23.95c.33-.81.73-1.58,1.08-2.38.13-.31.18-.65.32-1a17.27,17.27,0,0,0,.84-3.34c.11-.46.07-1,.21-1.41.28-.88.66-1.72,1-2.59.4-1.17.78-2.34,1.15-3.52a1.13,1.13,0,0,0,0-.43Z"/></svg>