<?xml version="1.0" encoding="utf-8"?>
<!-- Generator: Adobe Illustrator 21.1.0, SVG Export Plug-In . SVG Version: 6.00 Build 0)  -->
<svg version="1.1" id="Layer_1" xmlns:sketch="http://www.bohemiancoding.com/sketch/ns"
	 xmlns="http://www.w3.org/2000/svg" xmlns:xlink="http://www.w3.org/1999/xlink" x="0px" y="0px" viewBox="0 0 268 268"
	 enable-background="new 0 0 268 268" xml:space="preserve">
<title>Slice 1</title>
<desc>Created with Sketch.</desc>
<g id="Page-1" sketch:type="MSPage">
	<g id="FB-fLogo-online-broadcast" sketch:type="MSLayerGroup">
		<path id="Fill-14" sketch:type="MSShapeGroup" d="M252.7,0.6H15.3C7.1,0.6,0.6,7.1,0.6,15.3v237.4c0,8.1,6.6,14.7,14.7,14.7h127.8
			V164.1h-34.8v-40.3h34.8V94.1c0-34.5,21.1-53.2,51.8-53.2c14.7,0,27.4,1.1,31.1,1.6v36l-21.3,0c-16.7,0-20,7.9-20,19.6v25.7h39.9
			l-5.2,40.3h-34.7v103.4h68c8.1,0,14.7-6.6,14.7-14.7V15.3C267.4,7.1,260.9,0.6,252.7,0.6"/>
	</g>
</g>
</svg>
