<?xml version="1.0" encoding="utf-8"?>
<!-- Generator: Adobe Illustrator 18.1.0, SVG Export Plug-In . SVG Version: 6.00 Build 0)  -->
<svg version="1.1" id="Layer_1" xmlns="http://www.w3.org/2000/svg" xmlns:xlink="http://www.w3.org/1999/xlink" x="0px" y="0px"
	 viewBox="0 0 302.1 249.8" enable-background="new 0 0 302.1 249.8" xml:space="preserve">
<g>
	<g>
		<path d="M233.9,84.2c0,5.4,0,10.9-0.1,16.3c-0.1,3.4,0.2,6.9,0.2,10.3c0,2.4,0.1,4.7-0.3,7c-0.1,0.7,0.5,0.6,0.9,0.7
			c2.8,0.7,5.6,1.1,8.4,1.5c6.3,0.9,12.6,1.9,18.7,3.7c2,0.6,4.2,0.8,6.1,1.7c2.1,1,3.9,2.3,5.5,4c0.7,0.8,1.5,0.9,2.5,0.5
			c1.6-0.7,3.2-1.3,4.8-1.9c1.4-0.5,1.7-0.3,1.7,1.1c0,5.5,0.2,11-0.4,16.5c-0.3,3.1,1.1,5.8,2,8.6c1.2,3.6,1.2,3.6,4.9,4.5
			c1,0.3,1.9,0.5,2.9,0.8c2.1,0.6,3.3,2.2,3.4,4.4c0.1,2.5-0.7,4.5-2.5,6.2c-2.8,2.7-5.5,5.6-8.2,8.4c-1.1,1.1-2.3,2-3.7,2.6
			c-2.7,1.2-5.3,2.4-7.9,3.7c-4.8,2.4-10,3.2-15.1,4.4c-2.1,0.5-4.1,1-6.2,1.4c-3,0.6-6-0.3-8.9-0.6c-2.6-0.2-5.2-0.5-7.7-0.8
			c-0.7-0.1-0.8,0.1-0.8,0.8c0,6.6,0.5,13.3,0,19.9c-0.2,2.1-0.1,2.1-2.1,2.8c-0.3,0.1-0.5,0.2-0.8,0.3c-1.9,0.5-3,1.3-3.7,3.4
			c-1.7,5.4-8,7.4-12.7,4.2c-1.3-0.8-2.4-0.8-3.7-0.3c-10.5,3.9-21,7.9-31.4,12c-3.7,1.4-7.5,2.7-11,4.6c-2,1.1-4.3,1.6-6.6,1.2
			c-0.6-0.1-0.9,0-0.9,0.7c-0.1,0.8-0.6,1.3-1.2,1.8c-4,3.3-10.9,2-13.5-2.2c-0.3-0.4-0.6-0.9-0.8-1.3c-0.3-0.5-0.6-0.8-1.2-0.4
			c-0.5,0.2-1,0.1-1.5,0c-9.1-2.1-18.4-3.6-27.6-5.3c-10.4-1.9-20.7-3.8-31.1-5.9c-5.7-1.2-11.4-2.1-17.1-3.1
			c-0.9-0.2-1.6,0-2.3,0.7c-3.3,3.3-7.7,3.5-11.4,0.6c-1.7-1.4-3-3.1-3.3-5.4c-0.1-0.8-0.5-1.1-1.2-1.2c-1.5-0.2-3.1-0.4-4.6-0.8
			c-1-0.3-1.9-0.6-2.2-2.1c-0.8-3.6-0.5-7.2-0.6-10.9c-0.2-6.3,0.6-12.5,0.4-18.8c-0.1-4.3-0.3-8.5,0-12.8c0-0.1,0-0.3,0-0.4
			c1.4-1.7,0-3.3,0-5c0-1.8,0-3.6-0.1-5.4c-0.1-0.9-0.6-1.2-1.4-1.3c-8.8-1.6-17.5-3.5-26.4-5c-2.4-0.4-4.9-0.6-7.2-1.6
			c-0.9-0.4-1.3-1-1.2-1.9c0.1-1.1,0-2.2,0-3.4c0-0.9,0.4-1.4,1.2-1.7c4.3-1.9,8.5-4.1,13.1-5.3c0.9-0.2,1.2-0.6,1.2-1.6
			c-0.1-1.8,0-3.5,0-5.3c0-1.6,0.5-2.4,2-2.9c5.8-2.1,11.6-4.2,17.3-6.3c1.8-0.6,2.2-1,2.2-3c-0.2-5.4,0.3-10.8,0-16.2
			c-0.2-2.9,0.1-5.8,0.1-8.7c0-7.8,0-15.6-0.1-23.4c0-3.7-0.1-7.3,0.1-11c0.1-0.9-0.1-1.9,0.6-2.7c0.2-0.2,0-0.4-0.1-0.7
			c-0.6-1.3-0.2-2.5,0.8-3.3c2.8-2.4,5.4-5.1,8.4-7.3c1.3-0.9,1.8-1.9,1.6-3.5c-0.2-1.3,0-2.7-0.1-4.1c0-1,0.5-1.4,1.4-1.7
			c6.5-2.3,12.9-4.7,19.4-7c0.6-0.2,0.9-0.4,0.7-1.2c-0.3-1.2,0.4-2.2,1.3-2.9c1.4-1.1,3-1.5,4.7-1.5c2.3,0,4.6,0.1,6.9,0.3
			c1.6,0.1,3-0.8,4.5-1.3c0.5-0.2,0.2-0.6,0.1-0.8c-1.7-2.1-1.7-4.5-1.5-7c0.1-2.4-0.2-4.7-0.9-7C89.6,9,89.8,7.3,90,5.7
			c0.1-0.9,0.9-1.2,1.7-1.1c1.6,0.2,3,0.9,4.1,2.1c0.9,1,1.7,1.3,3.1,0.9c1.7-0.5,3.4-0.4,5,0.5c0.9,0.5,1.4,0.3,2-0.4
			c0.8-0.9,1.6-1.8,2.5-2.6c0.6-0.6,1.3-1.1,2.2-0.7c0.9,0.4,1,1.3,0.9,2.2c-0.1,2-0.1,4.1-0.3,6.1c-0.2,2,0.8,3.4,2.1,4.6
			c0.7,0.6,1.5,0.3,2.3,0.2c3.2-0.6,6.4-1.3,9.6-1.8c4.4-0.7,8.8-0.5,13.3,0.1c1.3,0.2,2.6,0.4,3.9,0.5c3.3,0.3,6.2,1.9,9.4,2.9
			c0.7,0.2,1.4,0.5,2.2,0.6c0.2,0,0.5,0,0.7,0.2c1.8,1.8,4.3,2.5,6.4,3.9c1,0.7,2.1,1.2,2.8,2.2c0.6,0.7,1.4,0.8,2.2,0.9
			c3.7,0.3,7.2,1.4,10.9,1.9c7.1,1,14.1,2.9,21.2,4.1c3.1,0.5,6.2,0.8,9.2,1.6c1.9,0.5,2,0.6,2.1,2.6c0,1.2,0.1,2.5,0,3.7
			c0,0.8,0.2,1.2,1,1.4c2.1,0.5,4.2,0.9,6.1,1.7c5,2,10.3,3,15.3,5.2c1.6,0.7,2.2,1.7,2.2,3.4C233.9,63,233.9,73.6,233.9,84.2z
			 M65.9,38.2c-2.9,0.7-5.6,1.9-8.6,3.3c25.2,4.6,50.1,9.1,75.1,13.7c-0.3-0.7-0.7-1.3-0.6-2c0-0.9-0.4-1-1.1-1.1
			c-7.6-1.2-15.3-2.4-22.9-3.8c-8.3-1.5-16.6-2.9-25-4.3c-5.5-1-11-2.1-16.5-3.1c-0.8-0.1-1.6-0.4-1.7-1.2c-0.2-0.9,0.7-1,1.3-1.3
			C65.8,38.4,65.9,38.3,65.9,38.2c1.6-0.2,3-0.9,4.4-1.6C68.8,37.1,67.2,37.4,65.9,38.2z M141.8,134.9c0-3.7,0-8.9,0-14
			c0.1-7.6,0.1-15.1,0-22.7c0-1-0.4-1.4-1.4-1.6c-6.3-1.1-12.6-2.2-18.9-3.3c-3.4-0.6-6.8-1.3-10.1-1.9c-0.5-0.1-1.1-0.4-1.1,0.6
			c-0.1,5.7,0.1,11.3,0.1,17c0,6.1,0.2,12.1-0.2,18.2c-0.2,4-2.4,6.8-5.8,7.6c-4.6,1.1-9.3-0.4-10.5-6.5c-0.5-2.8-0.6-5.6-0.5-8.5
			c0.2-10.3-0.2-20.6,0.3-30.9c0-0.7-0.2-1-0.9-1.1c-2.7-0.4-5.3-1-8-1.4c-7.2-1.3-14.5-2.6-21.7-4c-0.8-0.2-1.2-0.1-1.3,0.9
			c-0.4,2.7-0.3,5.4-0.5,8.2c-0.1,1.6,0.4,3.1,0.1,4.7c-0.2,1,0.4,2.1-0.1,3.2c-0.1,0.1,0.1,0.4,0.1,0.6c0.2,0.6,0.2,1.2,0.2,1.8
			c-0.3,2.5,0.2,5,0.1,7.5c-0.1,3.1,0.1,6.2,0.1,9.2c0,7,0,13.9-0.1,20.9c0,2.2,0,4.4,0,6.6c0.1,3.3-0.5,6.6-0.2,10
			c0.1,1.2,0.5,2.4,0.1,3.6c-0.1,0.3,0.2,0.4,0.5,0.5c0.5,0.1,0.9,0.3,1.4,0.4c10.5,2,21,3.9,31.6,5.9c15.1,2.8,30.2,5.7,45.3,8.6
			c1.1,0.2,1.3,0,1.3-1.1C141.6,161.4,141.5,148.9,141.8,134.9z M231.4,117.8c-0.1-0.7-0.3-1.2-0.3-1.7c-0.1-4.1-0.2-8.2-0.2-12.2
			c0.1-4,0.3-7.9,0.1-11.9c-0.1-2.9,0.4-5.7,0.2-8.6c-0.1-3.8-0.4-7.6-0.3-11.4c0.2-5.3-0.7-10.7-0.4-16c0.1-0.9-0.5-0.6-0.9-0.5
			c-2.6,0.7-5,1.8-7.5,2.8c-13,5-26.2,9.5-39.1,14.7c-3.9,1.6-8.2,2.3-11.5,5.1c0,0-0.1,0-0.1,0.1c-3.7,1.5-7.4,2.5-11.4,2.1
			c-4.4-0.4-8.8-1.1-13.2-1.9c-0.9-0.2-1.3-0.1-1.2,1c0,6.1,0,12.2,0,18.4c0,0.9,0.3,1.3,1.1,1.4c0.4,0.1,0.8,0.2,1.2,0.3
			c1.5,0.4,2.2,1.4,2.5,2.9c0.2,1.3,0,2.6,0,3.8c-0.1,7.1-0.2,14.2-0.3,21.3c0,2.5-1.2,3.8-3.6,4.4c-0.9,0.2-1.1,0.7-1.2,1.5
			c-0.1,2-0.1,3.9,0,5.9c0.2,6.4,0,12.9-0.1,19.3c0,4,0.1,8.1,0.1,12.1c0,5.1,0,10.2,0,15.3c0,0.8,0.2,1.1,1,1.3
			c2.5,0.5,4.9,1.2,7.4,1.5c4.5,0.6,8.9,1,13.4-0.5c7.1-2.4,14-5.2,21-7.7c0.1,0,0.3,0,0.3-0.3c-0.3-0.1-0.6-0.2-0.9-0.3
			c-4.5-1.2-9.2-1.6-13.7-2.7c-2-0.5-2-0.5-2.1-2.6c0-0.8-0.1-1.6-1-2c-0.7-0.3-0.9-1-0.9-1.7c-0.2-4.4,0.1-8.8-0.2-13.2
			c-0.2-2.6,0.3-5.2,0.1-7.8c-0.3-4.1,0-8.2-0.1-12.3c-0.2-7.6,0.1-15.1-0.2-22.7c-0.1-3,0.5-6,0.3-9c-0.4-7.5,0.4-14.9,0.1-22.4
			c-0.1-1.5,0.5-2.3,2-2.8c4.2-1.3,8.2-2.9,12.2-4.6c13.1-5.3,26.6-9.8,39.8-14.9c1.8-0.7,2.4-0.3,2.3,1.6
			c-0.1,5.8-0.1,11.5-0.1,17.3c0.1,10.1-0.2,20.1,0,30.2c0.1,5.1-0.1,10.1,0,15.2c0.2,7.1,0.1,14.2,0.1,21.2c0,0.4-0.2,0.9,0.3,1.3
			c0.3-0.6,0.2-1.1,0.2-1.6c0-7.4,0.1-14.8,0.1-22.2c0-1.8,0-3.5,0.1-5.3c0-1.3,1-2,2.3-1.9C229.7,117.5,230.5,117.7,231.4,117.8z
			 M170.8,208.1C170.8,208.1,170.8,208.1,170.8,208.1c0,7.7,0,15.3-0.1,23c0,1.4-0.1,1.4,1.2,0.9c15.3-6.5,31.1-11.9,46.6-17.9
			c3.5-1.3,7.1-2.6,10.6-3.8c1-0.4,1.6-0.9,1.8-2.1c0.3-1.8-0.4-3.5-0.3-5.2c0.2-4.2,0.3-8.3,0.4-12.5c0.1-2.5,0-2.6-2.4-2.9
			c-8.2-1.1-16.2-3.1-24.4-4.4c-2.9-0.5-5.7-1.2-8.6-1.8c-1-0.2-1.9-0.1-2.8,0.4c-1.4,0.8-2.8,1.5-4.3,2c-5.6,1.7-10.9,4.1-16.4,6
			c-0.9,0.3-1.3,0.8-1.3,1.8C170.8,197.2,170.8,202.6,170.8,208.1z M142,211.1c0-6.6,0-13.1,0-19.7c0-1.8-0.1-1.9-1.8-2.3
			c-5.5-1.1-11-2.1-16.6-3.1c-4.2-0.7-8.3-1.5-12.5-2.3c-0.5-0.1-1.3-0.4-1.1,0.6c0.4,2.6-0.5,4.9-1.6,7.2c-1,2.3-2.6,3.9-5.1,4.5
			c-0.9,0.2-1.2,0.7-1.2,1.6c-0.2,9.1-0.2,18.1-0.2,27.2c0,0.8,0.2,1.2,1.1,1.3c12.2,2.3,24.3,4.6,36.5,6.9c2.4,0.5,2.3,0.4,2.4-2
			C142.1,224.4,142,217.8,142,211.1z M98.8,225.4c0-0.5,0-0.9,0-1.4c-0.1-4.3-0.2-8.6-0.2-12.9c0-4.4,0.1-8.9,0.2-13.3
			c0-0.8-0.2-1.4-1.1-1.8c-3.3-1.3-4.9-3.8-4.9-7.3c0-2.4,0-4.8,0-7.2c0-0.9-0.3-1.3-1.2-1.4c-1.3-0.2-2.5-0.4-3.8-0.6
			c-8.3-1.8-16.6-3.4-24.9-4.9c-1.2-0.2-1.3,0.1-1.3,1.1c0,13.9,0,27.8,0,41.8c0,1.1,0.4,1.4,1.4,1.6c6,1.1,12,2.2,18,3.3
			C86.9,223.3,92.8,224.3,98.8,225.4z M46.6,56.8c2.6,0.4,4.9,0.7,7.1,1.2c7.5,1.7,15.1,3.2,22.7,4.3c4.2,0.6,8.2,1.7,12.4,2.3
			c5.4,0.8,10.9,1.7,16.3,2.6c2.4,0.4,4.8,1.2,7.2,1.6c7.3,1.4,14.7,2.8,22,4.1c4.4,0.8,8.7,1.5,13.1,2.4c2.9,0.6,5.8,0.9,8.6,2
			c1.6,0.6,3.3,0.2,5,0.1c3.2-0.1,6.3-0.6,9.1-2.3c1.9-1.1,3.9-1.9,6-2.7c17.2-6.8,34.5-13.1,51.9-19.6c0.7-0.3,1.4-0.5,2-1.1
			c-0.3-0.1-0.4-0.2-0.6-0.3c-6-2.1-12.2-3.5-18-6.1c-0.5-0.2-1.1-0.3-1.7-0.5c-0.3-0.1-0.5-0.2-0.7,0.1c-0.5,1-1.5,1.1-2.4,1.5
			c-7.4,2.9-14.9,5.7-22.5,8.3c-0.7,0.3-1,0.4-0.7,1.4c1.3,3.7-1.2,6.4-5,5.7c-1.5-0.3-2.8-1.1-3.8-2.1c-0.8-0.8-1.6-0.8-2.6-0.4
			c-5.5,2.2-10.9,4.3-16.4,6.4c-0.9,0.3-1.8,0.6-2.8,0.4c-6.6-1.2-13.1-2.3-19.7-3.6c-9.1-1.7-18.1-3.5-27.2-5.1
			c-15.8-2.9-31.6-5.7-47.3-8.8c-1.2-0.2-2.2,0-3.2,0.8c-1.6,1.4-3.2,2.7-4.8,4C49.2,54.6,48,55.6,46.6,56.8z M45.6,113.9
			c-0.3,6.2,0.1,12.9,0,19.5c-0.1,5.5-0.1,11-0.2,16.4c-0.1,5.4-0.1,10.9-0.2,16.3c0,0.4,0,0.9,0.4,1.2c1.8,0.9,3.5,2.1,5.6,2.4
			c2,0.2,4,0.5,5.9,0.9c1,0.2,1.1-0.1,1.1-1c-0.1-4.8-0.2-9.7-0.2-14.5c0-9.9,0-19.8,0-29.7c0-7.6-0.1-15.3-0.1-22.9
			c0-1.8-0.3-3.6-0.1-5.4c0.5-5.3-0.1-10.6,0.3-15.9c0.2-2.3-0.1-4.6-0.1-6.9c0-3.6,0.1-7.2,0.2-10.8c0-0.6,0-1.2-0.7-1.3
			c-3.7-0.6-7.3-1.5-11-2c-0.6-0.1-0.7,0.1-0.7,0.7c0,2.7-0.1,5.4-0.1,8c-0.2,7.6-0.2,15.3-0.1,22.9C45.6,99,45.2,106.2,45.6,113.9z
			 M176.7,154.9c0,5.2,0,10.4,0,15.6c0,1.1,0.4,1.4,1.3,1.6c17.8,3.2,35.5,6.4,53.3,9.6c1.1,0.2,1.3-0.2,1.1-1.1
			c-0.4-1.9-0.8-3.7-1.2-5.6c-1.2-6.9-3.6-13.4-7.2-19.4c-3.8-6.4-9.1-10.5-16.6-11.8c-9.9-1.7-19.8-3.3-29.5-5.5
			c-1.1-0.3-1.2,0.1-1.2,1.1C176.7,144.5,176.7,149.7,176.7,154.9z M61.5,71c0.1,0,0.2,0,0.3,0c0,2.2,0.1,4.3,0,6.5
			c-0.1,1.2,0.3,1.7,1.5,2c4.9,0.8,9.7,1.9,14.6,2.7c11.6,1.9,23.1,4,34.7,6.2c9.4,1.8,18.9,3.1,28.2,5.3c0.7,0.2,1.3,0.3,1.2-0.8
			c-0.4-4.4,0.2-8.8,0.1-13.2c0-2.2,0-2.2-2.2-2.6c-13-2.4-25.9-4.7-38.9-7.1c-7-1.3-14.1-2.7-21.1-3.8C74.2,65.2,68.5,64,62.8,63
			c-1-0.2-1.3-0.1-1.3,1C61.6,66.4,61.5,68.7,61.5,71z M222.6,89.6c-2.7,0.6-5,1.7-7.4,2.6c-13.7,5-27.4,9.9-40.9,15.3
			c-1.6,0.6-1.8,0.9-1.8,2.7c0,2.1,0,4.2,0,6.4c0,4.6-0.3,9.1-0.1,13.7c0,0.8,0.1,1.2,1.1,0.8c16-6.1,32.1-11.9,48-18.1
			c0.8-0.3,1.1-0.7,1.1-1.6c0-6.2,0-12.5,0-18.7C222.6,91.6,222.6,90.7,222.6,89.6z M222.6,65.4c-1.3,0.5-2.4,1-3.6,1.4
			c-14.7,5.4-29.3,10.9-44,16.3c-2.5,0.9-2.5,1-2.5,3.6c0,4.2,0.2,8.3,0.1,12.5c-0.1,1.9-0.2,3.9-0.4,5.9c0.4-0.1,0.7-0.2,1-0.3
			c16.1-5.9,32.2-11.7,48.2-17.8c0.9-0.3,1.2-0.7,1.2-1.7c-0.1-6.2,0-12.4,0-18.6C222.6,66.3,222.6,65.9,222.6,65.4z M264.9,134.6
			c1.3-1.7,3.2-1.9,4.8-2.5c1.3-0.5,1.4-0.8,0.3-1.7c-1.9-1.6-4-2.7-6.4-3.4c-10.8-3-22-4.4-33-6.5c-0.7-0.1-1-0.1-1,0.8
			c-0.1,9,0.1,17.9,0.2,26.8c0,0.8,0.3,1.2,1.1,1.3c4.8,0.6,9.5,1.7,14.2,2.6c5.2,1,10.3,2,15.5,3.1c0.6,0.1,1.1,0.3,1.1-0.7
			c0-6.5,0.1-12.9,0.2-19.4c0-1-0.1-2-0.1-3c0-0.9,0.4-1.5,1.4-1.5c0.9,0,1.3,0.6,1.4,1.4C264.7,132.8,264.8,133.5,264.9,134.6z
			 M162.4,214.1c-0.1-6.1,0.3-12.1,0.2-18.2c0-2.7,0-2.6-2.6-3.1c-4.3-0.7-8.6-1.6-12.9-2.4c-1.9-0.4-1.8-0.3-1.7,1.5
			c0.1,4.7-0.1,9.4,0,14.1c0.1,8.1,0,16.1-0.1,24.2c0,1.1,0.3,1.6,1.5,1.9c4.8,1,9.7,1.7,14.5,2.6c1.2,0.2,1.3-0.2,1.3-1.1
			C162.4,227.1,162.4,220.6,162.4,214.1z M141.6,182.6c0-1,0-2,0-3c0-0.8-0.2-1.1-1-1.3c-3.3-0.6-6.7-1.3-10-1.9
			c-13.5-2.6-27-5.2-40.6-7.5c-9.2-1.6-18.2-3.7-27.4-5c-0.8-0.1-1,0-1,0.8c0,1.8,0.1,3.7,0,5.5c-0.1,1.2,0.5,1.6,1.5,1.7
			c1.6,0.1,3.1,0.4,4.6,0.7c6.6,1.2,13.2,2.7,19.8,3.8c7.4,1.3,14.8,2.7,22.1,4c10.4,2,20.8,4,31.2,6c0.6,0.1,0.8-0.1,0.8-0.6
			C141.6,184.7,141.6,183.7,141.6,182.6z M45.1,192.4c0.2,6.5,0,13-0.1,19.5c0,0.8,0.1,1.3,1,1.5c3.5,0.6,7.1,1.3,10.6,2
			c1.1,0.2,1.4,0,1.4-1.1c-0.1-7.3,0.2-14.7,0.1-22c-0.1-5.3,0.1-10.7,0.1-16c0-2.5,0-2.5-2.5-3c-3.2-0.7-6.4-1.3-9.6-2
			c-0.3-0.1-0.9-0.4-0.8,0.3c0.3,2.3-0.1,4.6,0,6.9C45.2,183.1,45.1,187.8,45.1,192.4z M267.3,173.9c2.8-1.1,5.6-2.1,8.4-3.1
			c1.5-0.5,2-1.5,2-3c0.2-11.7,0.8-23.5,1.4-35.2c0.1-1-0.3-1-1.1-0.7c-2.3,0.9-4.5,1.9-6.8,2.5c-2,0.5-2.5,1.7-2.6,3.5
			c-0.3,9.7-1.2,19.4-1.2,29.1C267.5,169.2,267.2,171.5,267.3,173.9z M279.9,173.9c-1.2-0.5-2.4-0.5-3.5-0.1c-3,1.2-5.9,2.4-8.9,3.6
			c-0.6,0.2-1.2,0.4-1.8,0.5c-1.5,0.2-2.1-0.4-2.1-1.9c0-1.6,0.1-3.2,0.3-4.8c0.1-0.9-0.2-1.3-1.2-1.5c-6.5-1.3-12.9-2.7-19.3-4
			c-3.9-0.8-7.7-1.6-11.6-2.4c0,0.3,0,0.4,0,0.6c0.8,2.7,1.6,5.4,2.4,8.1c0.2,0.5,0.4,0.7,1,0.8c10.6,2.2,21.4,3.8,32,6.2
			c0.9,0.2,1.6,0.1,2.4-0.3c1.5-0.7,3-1.4,4.6-2.1C276.1,175.7,278,174.8,279.9,173.9z M225.2,151.4c1.4,2.5,2.6,4.9,4,7.1
			c0.5,0.8,1.2,1.2,2.1,1.4c10.6,2.2,21.3,4.4,31.9,6.6c0.7,0.2,0.9-0.1,0.9-0.8c0.1-1.6-0.8-3-1.2-4.5c-0.5-2.2-1.6-3.2-4.1-3.6
			c-7.5-1-14.8-3.1-22.3-4.2C232.8,152.9,229.1,152.1,225.2,151.4z M166.6,29.4c0.2,1.7,1,2.6,2.6,2.6c1.2,0,2.4,0.3,3.5,0.6
			c4.9,1,9.9,2,14.8,2.9c1.8,0.3,3.3,0.7,4.6,2c1.2,1.2,1.1,2.2-0.6,2.8c-5,1.8-9.9,3.5-14.9,5.3c-2.7,0.9-2.7,1.2-0.6,3.3
			c0.3,0.3,0.5,0.3,0.9,0.2c5.1-1.9,10.3-3.8,15.5-5.6c3.8-1.3,7.4-3.1,11.2-4.3c1.5-0.5,2.1-1.2,2.4-2.6
			C192.9,34.5,179.8,31.9,166.6,29.4z M117.4,36.3c1.3-0.2,2.1,0.4,2.9,1.2c0.8,0.9,1.8,1.6,3.2,1.1c0.3-0.1,0.7-0.1,0.9,0.1
			c0.9,1.2,2,0.6,2.9,0.2c1-0.4,1.6-0.5,2.5,0.3c0.8,0.6,1.8,0.4,2.1-0.3c0.8-1.9,3.9-3.1,5.8-2.1c0.6,0.3,1.3,0.8,1.1,1.5
			c-0.2,0.6-1.1,0.3-1.6,0.2c-1-0.3-1.8,0-2.6,0.6c-0.6,0.4-0.6,0.9-0.1,1.4c0.7,0.6,1.4,1.2,2.3,1.5c2.9,1.1,5.7,2.2,8.8,3.4
			c-1.4-2,0.9-2.9,1-4.5c-1.3,0.3-1.4-1.2-2.4-1.4c-0.6-0.1-0.9-0.6-0.8-1.2c0-0.3,0.2-0.8-0.4-0.6c-0.8,0.3-0.9-0.2-1-0.7
			c-0.3-0.8-0.5-1.5-1.6-1.5c-0.8,0-1.1-0.7-1-1.5c0.1-0.4,0.1-0.7-0.4-0.9c-1.5-0.5-2-1.4-1.5-2.9c0,0,0-0.1,0-0.1
			c-0.1-0.5-0.4-0.8-1-0.9c-0.7-0.1-0.7,0.4-0.8,0.8c-0.1,0.7-0.5,1-1,1.4c-1.4,1-2.8,0.5-4.2,0.3c-0.8-0.1-1.2-0.5-1.2-1.3
			c0-0.2,0.1-0.6-0.2-0.8c-0.6,0.6-1.1,1.5-2,1.7c-1,0.3-1.6-0.4-1.7-1.5c-0.7,0.8-1.2,1.5-1.8,2.1c-0.6,0.7-1.3,1.1-2.1,0.2
			c-0.3-0.3-0.4-0.2-0.7,0c-1.5,0.6-2.1,0.2-2.1-1.5c-0.1,0.5-1.2,0.7-0.5,1.6C119.1,33.8,119,34.8,117.4,36.3z M170.7,56.8
			c-1.2-2.1-1.2-2.1-3.2-1.3c-5.1,1.9-10.3,3.5-15,6.2c-1.3,0.7-2.9,1-4.3,0.3c-2.4-1.1-4.9-1.6-7.5-2.1c-7.8-1.5-15.5-2.9-23.3-4.2
			c-8-1.4-16-3-24-4.5c-7.3-1.4-14.6-2.4-21.8-3.9c-4.7-1-9.5-1.9-14.3-2.5c-0.3,0-0.6-0.3-0.8,0.1c-0.2,0.3,0,0.6,0.2,0.9
			c0.5,0.6,1.3,0.7,2,0.8c11.1,1.7,22.1,4,33.1,6c18.8,3.4,37.7,6.6,56.4,10.6c2.7,0.6,5.2,0.5,7.7-0.7c1.6-0.7,3.3-1.3,5-1.9
			C164.3,59.1,167.6,58.2,170.7,56.8z M261.5,181.4c-0.2-0.5-0.5-0.4-0.7-0.4c-3.1-0.6-6.3-1.2-9.4-1.8c-5.1-1-10.3-2-15.4-2.9
			c-0.7-0.1-1.2-0.1-0.9,0.8c0.2,1,0.3,2.1,0.6,3.2c0.3,1.4,1.1,2.3,2.6,2.5c1.6,0.2,3.2,0.4,4.7,0.8
			C249.4,185.1,255.4,183,261.5,181.4z M41.4,139.2c0-1.3-0.4-1.8-1.8-2.1c-4.7-0.9-9.5-1.8-14.2-2.7c-1.5-0.3-1.5-0.3-1.7,1.2
			c0,0.1,0,0.2,0,0.4c-0.1,1.5,0.3,2.1,1.9,2.3c1.7,0.3,3.3,0.6,4.9,0.9c0.7,0.1,1.2,0.6,1.3,1.3c0.1,0.7-0.3,1.2-0.9,1.4
			c-0.5,0.2-1,0.1-1.5,0c-1.4-0.2-2.7-0.5-4.1-0.8c-0.4-0.1-1-0.3-1,0.2c-0.1,0.5,0.5,0.6,0.9,0.7c5.1,1,10.2,2,15.2,3.1
			c0.9,0.2,1-0.1,1-0.9C41.3,142.5,41.2,140.9,41.4,139.2z M11.8,146.3c0.3,0.2,0.4,0.3,0.5,0.3c9.4,1.7,18.8,3.5,28.2,5.2
			c0.6,0.1,0.8,0,0.8-0.6c0-0.4,0-0.7,0-1.1c0-2.3,0-2.2-2.2-2.7c-5.4-1.2-10.9-2-16.4-2.9c-0.7-0.1-1.4-0.4-1.9-1
			c-0.2-0.3-0.4-0.5-0.9-0.3C17.3,144.2,14.7,145.2,11.8,146.3z M291.7,166.8c-1.1,0.4-2,1.1-2.8,1.9c-1.1,1.1-2.3,2.3-3.3,3.5
			c-2.6,3.2-5.8,5.6-9.8,7c-3,1.1-5.8,2.9-8.9,3.7c-5.1,1.4-10.3,2.1-15.3,3.8c-0.4,0.1-0.8,0.1-1.2,0.1c-7.3-0.3-14.5-1.5-21.8-2.6
			c-15.6-2.5-31.1-5.6-46.6-8.5c-2.4-0.4-4.7-0.8-7.1-1.2c-0.3-0.1-0.9-0.2-0.9,0.3c-0.1,0.5,0.5,0.4,0.8,0.4c1.8,0.4,3.7,0.7,5.5,1
			c21.3,3.8,42.4,8.3,63.8,11.1c2.4,0.3,4.7,0.8,7.1,0.4c10.1-1.9,19.9-4.7,29.1-9.4c0.5-0.3,1.1-0.6,1.5-1
			C285.2,173.7,288.4,170.2,291.7,166.8z M111.5,45.9c3.8,0.5,7.5,1.5,11.3,2c3.3,0.5,6.7,1.2,10,1.9c0.3,0.1,0.6,0.2,0.9-0.1
			c1-0.8,2.2-0.8,3.4-1c1.4-0.2,2.9-0.4,4.4-1c-0.3-0.1-0.4-0.2-0.5-0.2c-6.8-1.5-13.6-2.9-20.5-4.3c-0.3-0.1-0.6-0.2-0.9-0.1
			C116.8,44.1,114.1,45,111.5,45.9z M187,38.3c-0.6-0.2-0.9-0.3-1.2-0.3c-5.5-1.1-11.1-2.1-16.6-3.2c-1.1-0.2-1.1,0.1-0.8,0.9
			c1,2.7,2.5,5.2,3.9,7.7c0.2,0.3,0.4,0.4,0.8,0.3C177.8,41.9,182.3,40.3,187,38.3z M165.6,212.5c0,7.5,0,14,0,20.5
			c0,0.5-0.2,1.1,0.2,1.3c0.5,0.2,1-0.4,1.5-0.6c0.3-0.2,0.3-0.5,0.3-0.8c0-0.6,0-1.1,0-1.7c0-12.7,0-25.5,0-38.2
			c0-0.4,0.4-1.2-0.5-1.2c-0.7-0.1-1.1,0.4-1.3,1.1c-0.1,0.4-0.1,0.9-0.1,1.3c0,0.6,0.1,1.1,0.1,1.7
			C165.4,201.7,165.7,207.6,165.6,212.5z M41.6,155.8c0.3-0.9-0.3-1-1-1.1c-10.4-1.9-20.7-3.9-31.1-5.8c-0.5-0.1-1.2-0.6-1.3,0.5
			c-0.1,0.9-0.2,1.5,1,1.6c1.9,0.2,3.8,0.7,5.8,1c8.4,1.6,16.8,3.1,25.2,4.6C40.8,156.8,41.9,157.4,41.6,155.8z M102.3,14.7
			c-0.5,0.5-0.4,1.8-1.3,1.3c-0.8-0.4-0.9-0.2-1.1,0.4c-0.2,0.7-0.6,0.8-1.1,0.3c-0.4-0.3-0.8-0.6-1.1-1c-0.5-0.7-1.1-0.7-1.8-0.6
			c-1.4,0.3-2.1,1.4-2.3,2.9c-0.1,0.8-0.1,1.1,0.8,1.2c0.8,0.1,1.6,0.5,2.4,0.8c0.7,0.2,0.9,0.7,1,1.3c0.1,0.6-0.4,0.8-0.8,1
			c-0.5,0.3-1.1,0.7-1.6,1C95,23.6,95,23.8,95.2,24c0.1,0.2,0.2,0.4,0.5,0.4c1.3,0,2.6-1.7,2.4-3c-0.1-0.8,0.5-1.5,1.3-1.5
			c1,0,1.5,0.6,1.3,1.8c-0.3,1.7,0.2,2.3,1.8,2.7c0.4,0.1,0.7,0.2,0.9,0.5c0.8,1.1,1.5,0,2-0.3c0.5-0.4-0.1-1.2-0.5-1.3
			c-1.8-0.7-1.8-2.7-3.2-3.7c-0.2-0.1-0.2-0.4-0.1-0.7c0.3-1.4,2-2.3,3.3-1.8c0.3,0.1,0.9,0.2,0.5,0.7c-0.3,0.4-0.1,1.5-1.1,1.2
			c-1-0.3-1,0.3-1.3,0.9c0.4,0.1,0.8,0.1,1.1,0.2c0.4,0.1,0.8,0.3,1.1,0.4c0.3,0.1,1.9-0.9,1.8-1c-0.6-0.6-0.1-1,0.2-1.5
			c0.2-0.4,0.3-0.7,0-1c-0.8-0.8-0.2-1.2,0.5-1.4c0.8-0.2,0.9-0.7,0.8-1.3c0-0.4-0.1-0.9-0.2-1.3c-0.1-0.3,0.1-0.8-0.3-0.8
			c-0.5,0-0.4,0.5-0.5,0.8c-0.3,0.9-0.3,2.1-1.9,1.6c-0.2-0.1-0.4,0.2-0.5,0.4c-0.5,0.8-1.1,0.6-1.7,0.2
			C103.1,15.1,102.7,14.9,102.3,14.7z M206.5,42.2c0.2-1.2-0.4-0.9-1.1-0.7c-7.5,2.7-14.9,5.4-22.4,8.1c-1.2,0.4-2.5,0.9-3.7,1.4
			c-0.2,0.1-0.7,0.1-0.4,0.6c0.6,0.9,1.6,1.3,2.6,1c8-2.7,15.7-6.1,23.7-8.7C206.1,43.7,206.5,43.1,206.5,42.2z M28,132
			c0.2,0.2,0.2,0.3,0.3,0.3c4.2,0.8,8.4,1.6,12.6,2.5c0.8,0.2,0.9-0.2,0.9-0.8c0-1.9-0.1-3.8,0-5.8c0-1.1-0.3-1.1-1.2-0.8
			c-3.5,1.3-7,2.6-10.5,3.8C29.3,131.5,28.7,131.7,28,132z M280.5,167.4c0,2.8,0,2.8,2.4,3.5c0.5,0.1,0.9,0.1,1.3-0.3
			c1.4-1.4,2.8-2.8,4.1-4.2c1.2-1.2,1-2.2-0.7-2.8c-2-0.7-4-1.2-5.9-1.9c-0.6-0.2-0.7-0.1-0.8,0.5
			C280.7,164,280.4,165.6,280.5,167.4z M145.5,115.7c0,0,0.1,0,0.1,0c0,4.2,0,8.4,0,12.6c0,0.3-0.1,0.6,0.1,0.8
			c0.4,0.2,0.6-0.2,0.8-0.4c0.7-0.7,1-1.5,1-2.5c-0.1-3-0.4-6-0.3-9c0.1-3.9-0.2-7.9,0.1-11.9c0.1-1-0.2-1.8-0.8-2.6
			c-0.3-0.3-0.6-0.9-1.1-0.7c-0.6,0.2-0.4,0.8-0.4,1.3C145.2,107.5,145.3,111.6,145.5,115.7z M101.7,193c0.8-0.1,1.2-0.4,1.6-0.7
			c2.8-2.3,3.3-5.5,3.4-8.8c0-0.3-0.2-0.5-0.5-0.5c-1.3-0.2-2.5-0.5-3.8-0.7c-0.6-0.1-0.8,0-0.8,0.7
			C101.7,186.2,101.7,189.6,101.7,193z M85.9,35.2c-1.7-0.4-3.2-0.6-4.8,0.1c-3.2,1.3-6.6,2.3-9.8,3.9c3.1,0.5,6.2,1.1,9.3,1.6
			c-0.2-2.6,0.2-3.3,2.5-4.3C84,36.1,85,35.6,85.9,35.2z M98.6,192.6c0-3.6,0-7.1,0-10.5c0-0.3-0.1-0.7-0.5-0.7
			c-0.9,0-1.7-0.5-2.6-0.2c-0.1,0-0.1,0.3-0.1,0.4c0.2,1.5-0.1,3-0.2,4.5C95,189,96.2,191.3,98.6,192.6z M93.5,43
			c1.3,0.3,2.4,0.5,3.4,0.8c0.8,0.2,1.5,0.1,2.1-0.4c0.7-0.6,1.6-0.7,2.4-0.9c1.9-0.4,3.6-1.1,5.4-1.9c-1.8-0.5-3.7-0.9-5.5-1.3
			c-0.4-0.1-0.7,0-1,0.1C98.1,40.5,95.9,41.6,93.5,43z M149.7,59.6c0.6,0.1,0.9-0.1,1.2-0.4c0.7-0.6,1.5-1.2,2.2-1.8
			c1.4-1.2,1.3-1.3-0.3-2.1c-0.1-0.1-0.3-0.1-0.4-0.2c-1.7-1.3-1.7-1.3-3.2,0.2c-0.3,0.3-0.5,0.5-0.8,0.8c-0.5,0.6-1.2,1.2-0.8,2.1
			C148,59.1,148.9,59.5,149.7,59.6z M159.1,55.4c2.2-0.7,4.4-1.4,6.5-2.2c2.1-0.7,2.1-0.7,0.9-2.4c-0.1-0.2-0.3-0.4-0.4-0.6
			c-0.2-0.5-0.5-0.6-1.1-0.4c-1.1,0.5-2.2,0.9-3.3,1.3c-0.3,0.1-0.6,0.3-0.7,0.7C160.8,53.3,160.1,54.4,159.1,55.4z M86.4,42.3
			c0.9,0,1.6,0,1.8-0.9c0.3-1.3,0.5-2.7,0.7-4c0.1-0.5-0.1-0.7-0.6-0.4c-1.5,0.7-3.1,1.3-4.6,2c-0.9,0.4-0.9,1-0.4,1.7
			C84.1,41.8,85.3,42.2,86.4,42.3z M85,28.7c-1.9-0.1-3.4-0.3-5.1,0.1c-0.8,0.2-1.5,0.5-2.2,1c-0.4,0.3-0.5,0.6,0,0.8
			c1.9,1.1,4.1,1.4,6.3,1.7c0.5,0.1,0.8-0.5,1.1-1c0.2-0.3-0.1-0.4-0.3-0.5C83.5,30.1,83.5,30.1,85,28.7z M103.8,44.7
			c2.4,0.4,8.3-1.2,10.5-2.8c-0.9,0-1.5-0.4-2.3-0.2C109.3,42.7,106.6,43.7,103.8,44.7z M93.3,13.8c0.5-0.4,0.8-0.6,1.1-0.8
			c1.4-1.2,1.4-1.2,0.2-2.5c-0.8-0.8-0.9-2-2.1-2.7C92.8,9.8,93,11.7,93.3,13.8z M138.1,51.2c-1.4-0.2-2.6,0.1-3.5,1
			c-0.6,0.6-0.5,1.2,0.1,1.6c0.4,0.3,0.9,1.2,1.5,0.4C136.9,53.3,137.5,52.3,138.1,51.2z M137.3,24.5c1.1-1,2.4-1.4,3-2.9
			c0.3-0.9,1.3-1.5,1.9-2.3c-1-0.6-1.7-0.7-2.2,0.5c-0.4,0.9-1.1,1.6-1.6,2.4C137.9,22.9,137.4,23.6,137.3,24.5z M145.6,55.4
			c-1.9,0.3-3.7,0.6-5.4,0.8c0.9,0.5,1.9,0.7,2.9,0.9C144.9,57.5,144.9,57.5,145.6,55.4z M161.6,48c0.8-0.3,1.4-0.5,2-0.7
			c0.3-0.1,0.6-0.2,0.3-0.6c-0.5-0.9-1.1-1.8-1.8-3C161.9,45.3,161.8,46.6,161.6,48z M222.6,124.7c0-1.6,0-3,0-4.4
			c-0.1,0-0.1,0-0.2,0c-0.7,1.4-1.4,2.8-2.1,4.5C221.1,124.4,221.8,123.8,222.6,124.7z M158.8,48.3c-1.2,0.9-2.1,1.7-3.3,2.7
			c1.4-0.2,2.3,0,3,1C158.6,50.7,158.7,49.6,158.8,48.3z M99.8,124.2c-3.4,2-4.2,3.8-2.2,5.4c-1-1.7-0.1-2.6,0.7-3.5
			C98.8,125.5,99.3,124.8,99.8,124.2z M210.1,136.6c-1.4,1.3-3,2.7-4.6,4.1c0.1,0.1,0.3,0.3,0.4,0.4
			C207.9,140.1,208.8,138,210.1,136.6z M146.9,52.7c1.4,0.5,2.2-0.1,2.9-1c0.2-0.2,0.6-0.5,0.2-0.8c-0.3-0.3-0.7-0.6-1.1-0.1
			C148.3,51.4,147.6,52,146.9,52.7z M136.1,18.3c-0.1-0.1-0.2-0.2-0.3-0.3c-1.9,1.3-2.7,3.5-3.9,5.5
			C133.3,21.8,134.7,20.1,136.1,18.3z M113.1,31.6c-1.2-1.3,0.4-2.1,0.5-3.4c-1.1,1.3-2,2.4-3.2,3.8
			C111.5,31.9,112.2,31.8,113.1,31.6z M107.5,90.9c-0.1-0.1-0.2-0.2-0.3-0.3c-1.1,1-2.1,2-3.2,3c0.1,0.1,0.2,0.2,0.3,0.3
			C105.2,92.7,107.1,92.7,107.5,90.9z M222.8,126.3c-0.7,0.8-1.4,1.5-1.5,2.3c0,0.5,0.9,0.2,1.4,0.5c0,0,0.1-0.1,0.1-0.1
			C222.8,128.2,222.8,127.4,222.8,126.3z M192.2,138.4c1,0.2,1.9,0.4,2.8,0.6c0.2,0,0.5,0.2,0.6-0.1c0.1-0.4-0.3-0.4-0.5-0.5
			c-0.3-0.1-0.8-0.1-1-0.4C193.2,137,192.7,137.5,192.2,138.4z M200.6,140c1,0.2,1.9,0.3,2.9,0.5c-0.4-1-1.1-1.5-1.8-1.7
			C201.2,138.7,201,139.4,200.6,140z M144.9,30.6c-0.9-0.2-1.5-0.4-2.3-0.2c-0.5,0.1-0.6,0.5-0.6,0.9c0,0.3,0.1,0.4,0.3,0.3
			C143.2,31.5,144.1,31.3,144.9,30.6z M148.4,47.9c0.4-0.2,1.1,0.1,1-0.6c0-0.4-0.3-1-0.7-1c-0.6,0.1-1.4,0.5-1.5,1.1
			C147.1,47.9,147.9,47.8,148.4,47.9z M156.3,44.7c-0.1,0-0.1-0.1-0.2-0.1c-0.9,0.9-1.8,1.7-2.8,2.6c-0.3,0.2-0.2,0.5,0,0.7
			c0.3,0.4,0.5,0.1,0.6-0.1C154.8,46.7,155.6,45.7,156.3,44.7z M107.6,104.9c-0.8,0.5-1.3,1-1.7,1.6
			C107.7,107.1,107.7,107.1,107.6,104.9z M179.1,59c1.3,0.4,1.8-0.4,1.8-1.2c0.1-0.8-0.8-0.8-1.5-1C180.3,57.7,180.2,58.3,179.1,59z
			 M107.2,94.8c-0.9,0.8-1.7,1.5-2.7,2.4C106.8,96.5,107.2,96.2,107.2,94.8z M154.1,23.3c-0.1-0.1-0.2-0.2-0.3-0.3
			c-1.2,0.7-1.7,2-2.3,3.2C152.3,25.2,153.2,24.2,154.1,23.3z M101.9,35.5c2.6-1.1,2.6-1.1,1.9-2.4
			C103.2,33.9,102.6,34.6,101.9,35.5z M211.4,141.1c-0.5,0-0.9,0.2-0.8,0.5c0.2,0.6,0.8,0.6,1.3,0.7c0.3,0.1,0.7-0.2,0.6-0.5
			C212.4,141.2,211.7,141.3,211.4,141.1z M119.8,19.2c-2,0.1-2.1,0.2-1.9,1.8C118.5,20.5,119.1,19.9,119.8,19.2z M166.7,43.3
			c0.7-0.1,1.2-0.3,1.5-0.7c0.4-0.4,0.2-0.9-0.2-1.1c-0.4-0.3-0.5,0.3-0.6,0.5C167.2,42.3,167,42.7,166.7,43.3z M102.2,28.6
			c0.9-0.4,1.3-0.8,1.1-1.6c-0.1-0.4-0.7-0.5-0.9-0.3C101.7,27.3,102.7,27.9,102.2,28.6z M89.7,29.9c-0.9,0.8-1.7,1.5-2.6,2.3
			C88.4,31.9,89.2,31.1,89.7,29.9z M264.6,143c-0.2,1.2-0.7,2.3,0,3.5C264.6,145.3,264.6,144.1,264.6,143z M149.2,23.4
			c1.8-0.9,1.8-0.9,1.5-1.8C150.2,22.2,149.7,22.8,149.2,23.4z M163.4,38.6c-0.6,0.8-1.2,1.5-1.8,2.3
			C162.6,40.4,163.2,39.7,163.4,38.6z M222.6,136.3c-0.4,0.4-1.1,0.5-0.9,1c0.1,0.3,0.5,0.4,0.9,0.3
			C222.6,137.2,222.6,136.8,222.6,136.3z M120.8,21.6c0.8-0.5,1.6-0.9,1.5-2.1C121.6,20.1,121.1,20.8,120.8,21.6z M132.3,41.6
			c-0.3,0.5-0.7,0.8-0.4,1.2c0.3,0.3,0.8,0.3,1.3,0.2C132.9,42.5,132.7,42.1,132.3,41.6z"/>
		<path d="M65.4,51.4c1.9,0.3,4,0.7,6,1.1c4,0.8,8,1.5,12,2.3c0.7,0.1,1.6,0.1,1.7,1c0.1,0.9-0.6,1.3-1.4,1.7c-2.7,1-5.3,2.1-8,3.2
			c-1.2,0.5-2.4,0-3.5-0.2c-5.3-1-10.6-2.1-16-3c-0.7-0.1-1.3-0.3-1.5-1.1c-0.1-0.9,0.2-1.4,1-1.7c2.8-1,5.6-2.1,8.4-3.1
			C64.4,51.4,64.9,51.4,65.4,51.4z M78.7,56.3c-0.2-0.1-0.3-0.2-0.5-0.3c-0.4-0.2-0.8-0.1-1.2,0.3c-0.1,0.1-0.2,0.4-0.1,0.4
			c0.3,0.4,0.7,0.1,1.1,0C78.2,56.7,78.4,56.7,78.7,56.3z"/>
		<path d="M114.7,67.9c-1.5-0.3-3.1-0.4-4.6-0.8c-5.1-1.3-10.3-2.1-15.5-3c-1.6-0.3-3.2-1-4.9-0.9c-0.4,0-0.9-0.1-1-0.7
			c-0.1-0.5,0.1-0.8,0.4-1.2c0.4-0.4,0.9-0.6,1.4-0.8c2.5-1,5.2-1.5,7.4-3.4c0.3-0.3,0.7-0.2,1.2-0.1c6.8,1.3,13.6,2.6,20.3,3.9
			c1.3,0.2,2.2,0.8,2.8,2c0.4,0.7,0.2,1.2-0.5,1.6c-0.6,0.3-1.3,0.5-1.9,0.7c-1.2,0.4-2.4,0.7-3.2,1.8
			C116.1,67.7,115.5,68,114.7,67.9z M118,63.2c-0.2-0.1-0.4-0.1-0.6-0.1c-5.3-0.9-10.5-1.8-15.8-2.7c-1.6-0.3-3,0.4-4.7,1.4
			c4.4,0.9,8.4,1.5,12.4,2.5C112.4,64.9,115.2,64.9,118,63.2z"/>
		<path d="M129.5,70.6c-1.9-0.4-3.8-0.7-5.6-1.1c-0.8-0.1-1.6-0.3-2.4-0.4c-0.7-0.1-1-0.5-1.2-1.1c-0.2-0.6,0-1.1,0.5-1.4
			c1.4-1,3.1-1.4,4.6-2.2c1.8-1,3.7-1.2,5.8-0.7c1.8,0.4,3.6,0.7,5.4,1c0.6,0.1,1.2,0.3,1.3,1c0.1,0.7-0.4,1.1-1.1,1.3
			c-0.8,0.3-1.5,0.8-2.2,1.2c-1.2,0.8-2.7,0.9-3.7,2C130.6,70.6,130,70.7,129.5,70.6z"/>
		<path d="M143.3,73.4c-3-0.6-6-1.2-9-1.8c-0.4-0.1-0.4-0.3-0.3-0.6c0.2-0.8,0.8-1.2,1.5-1.4c1.2-0.4,2.3-0.9,3.5-1.3
			c1-0.3,1.8-0.8,2.5-1.5c0.7-0.8,1.5-1,2.5-0.9c2.7,0.2,5.3,1,7.9,1.6c0.5,0.1,0.9,0.5,0.9,1c0,0.5-0.4,0.7-0.8,0.9
			c-1.4,0.7-2.8,1.3-4.2,2c-0.9,0.4-1.7,0.8-2.4,1.5C144.7,73.3,144,73.3,143.3,73.4z"/>
		<path d="M186.9,156.1c-0.3,5.2-0.1,8.9,0,12.7c0,1.5-0.5,2.2-1.8,2.2c-1.2,0-1.7-0.7-1.8-2.2c-0.5-7.6,0-15.2,0-22.8
			c0-0.2,0-0.4,0-0.6c0.1-1.3,0.7-2,1.7-2c1.1,0,1.9,0.9,1.9,2.2C186.9,149.6,186.9,153.6,186.9,156.1z"/>
		<path d="M195.6,158.5c0.1,4.2,0.2,8.4,0,12.6c0,0.8,0.2,1.8-1,1.9c-0.9,0.1-1.8-0.8-1.8-2c-0.1-2.1-0.1-4.1-0.1-6.2
			c-0.1-4.9-0.3-9.7-0.4-14.6c0-1.6,0.1-3.3,0.1-4.9c0-1.1,0.6-1.6,1.6-1.6c1.1,0,1.6,0.6,1.6,1.7
			C195.6,149.7,195.6,154.1,195.6,158.5z"/>
		<path d="M204.9,159.8c0,4.1,0,8.2,0,12.3c0,0.5,0,1-0.2,1.4c-0.4,0.6-0.8,1.1-1.6,1c-0.7-0.1-0.9-0.7-1.1-1.2
			c-0.3-0.9-0.4-1.8-0.4-2.7c-0.1-5.6-0.2-11.2-0.2-16.8c0-2,0.1-3.9,0.2-5.9c0-0.7,0.2-1.2,0.6-1.8c0.4-0.7,1-0.7,1.7-0.5
			c0.7,0.1,0.8,0.7,0.8,1.3c0,2.2,0.1,4.4,0.1,6.6c0,2.1,0,4.2,0,6.4C204.7,159.8,204.8,159.8,204.9,159.8z"/>
		<path d="M215.3,162.9c0,3.4,0,6.9,0,10.3c0,0.2,0,0.5,0,0.7c-0.3,1.8-1.4,2.3-2.9,1.2c-0.3-0.2-0.2-0.4-0.2-0.6
			c0.1-6.2,0-12.4-0.1-18.6c0-1.3,0.2-2.5,0.3-3.8c0.1-1,0.5-1.7,1.7-1.6c1.1,0.1,1.5,0.8,1.5,1.8c0,3.5,0,7,0,10.5
			C215.4,162.9,215.3,162.9,215.3,162.9z"/>
		<path d="M236,138.4c0-3.6,0-7.1,0-10.7c0-1.4,0.9-1.9,2.2-1.6c0.7,0.2,1.1,0.6,1.2,1.3c0.1,0.9,0.3,1.9,0.3,2.8c0,6,0.1,12-0.2,18
			c0,0.2,0,0.4,0,0.6c-0.2,0.9-1,1.5-2,1.5c-1,0-1.3-0.7-1.3-1.5C235.8,145.3,236,141.8,236,138.4z"/>
		<path d="M257,141c0.1,3.3-0.4,6.9-0.2,10.5c0,0.9-0.2,1.6-1.2,1.7c-1,0.1-1.5-0.5-1.6-1.4c-0.2-1.1-0.2-2.1-0.2-3.2
			c0-5.8-0.1-11.7-0.1-17.5c0-0.6,0-1.1,0.1-1.7c0.2-1,1-1.3,2.1-1.2c1,0.1,1.1,0.8,1,1.6c-0.2,2.6,0.1,5.2,0.1,7.8
			C257,138.6,257.1,139.6,257,141z"/>
		<path d="M244.9,138.5c-0.1-3.2-0.3-6.3,0-9.5c0-0.5,0.2-0.9,0.2-1.4c0.1-0.9,0.5-1.5,1.6-1.3c1,0.2,1.5,1,1.3,1.8
			c-0.5,2.2-0.2,4.4-0.3,6.6c-0.2,4.7-0.2,9.4,0,14c0,0.6,0.4,1.5-0.6,1.8c-1,0.2-1.8-0.5-2-1.6c-0.4-2.1-0.2-4.2-0.3-6.3
			C244.9,141.2,244.9,139.8,244.9,138.5z"/>
		<path d="M127.5,35c0.6,0.1,1.1,0.1,1.5,0.2c0.7,0.1,1.5,0.2,1.5,1.2c-0.1,0.9-0.9,1.1-1.5,1.2c-0.9,0.1-1.7-0.3-2.2-1.1
			C126.2,35.5,126.6,34.9,127.5,35z"/>
		<path d="M133.1,35.6c-1,0-2.5-1-2.3-1.5c0.2-0.6,0.9-0.6,1.5-0.6c0.9,0,1.8,0.1,1.9,1.2C134.3,35.4,133.6,35.5,133.1,35.6z"/>
		<path d="M95.3,16.5c1.1,0.2,2,0.7,2.5,1.7c0.2,0.4,0.1,0.8-0.1,1.1c-0.3,0.4-0.7,0.1-1-0.1c-0.5-0.3-0.9-0.6-1.6-0.6
			c-0.7,0-0.9-0.6-0.9-1.2C94.3,16.7,94.8,16.6,95.3,16.5z"/>
	</g>
</g>
<g>
	<g>
		<defs>
			<rect id="SVGID_1_" x="-238.1" y="110.5" width="83" height="148.6"/>
		</defs>
		<clipPath id="SVGID_2_">
			<use xlink:href="#SVGID_1_"  overflow="visible"/>
		</clipPath>
		<g clip-path="url(#SVGID_2_)">
			<defs>
				<rect id="SVGID_3_" x="-239.1" y="109.4" width="85.1" height="150.8"/>
			</defs>
			<clipPath id="SVGID_4_">
				<use xlink:href="#SVGID_3_"  overflow="visible"/>
			</clipPath>
			<g clip-path="url(#SVGID_4_)">
				<g>
					<path d="M-196.1,132c0.5-0.2,1.1-0.3,1.4-0.6c0.8-0.7,1.4-1.6,2.2-2.2c0.7-0.5,1.6-0.8,2.5-1.1c0.6-0.2,1.3-0.2,1.9-0.4
						c0.2-0.1,0.5-0.4,0.5-0.7c0.5-1.9,0.9-3.8,1.4-5.7c0.3-1.2,0.6-2.4,0.9-3.6c0.4-1.9,2.8-2.5,4.2-2.3c1.2,0.2,2.3,1.6,2.2,3.4
						c-0.1,2-0.6,3.9-0.9,5.8c-0.2,1.1-0.5,2.2-0.8,3.4c0.5,0.4,1,0.9,1.6,1.4c1.7,1.4,2.2,3.3,2.2,5.4c0,0.8,0,1.5,0,2.3
						c0,3.9,0,7.7,1.8,11.3c1.6,3.3,2.8,6.7,4.3,10.2c0.5-0.4,1-0.7,1.4-1c1.9-1.5,4.6-0.9,5.6,1.3c1.1,2.5,2.1,5,3.2,7.5
						c1.1,2.7-1.1,5.6-3.2,6c-0.8,0.1-1.8-0.7-2.7-1.1c-0.4-0.2-0.6-0.7-0.9-1.1c-0.9,2.7-3.2,4.6-2.9,7.5c0.2,1.8,0.7,3.7,0.9,5.5
						c0.1,2.5,0.4,5.1,0,7.6c-0.5,2.7-1.4,5.5-2.5,8c-1,2.3-2.5,4.5-4,6.6c-0.7,1-1.8,1.7-2.8,2.4c-0.8,0.5-0.8,1.1-0.8,1.7
						c0.1,1.5,0.3,3,0.3,4.5c0,3.4-0.7,6.7-1.4,10c-0.8,3.6-2.2,7-3.6,10.5c-0.9,2.3-1.7,4.6-2.5,6.9c-0.1,0.2-0.1,0.4-0.3,0.5
						c-0.8,0.7-0.8,1.3,0.1,1.6c1.5,0.5,2.2,1.6,2.9,2.9c1,2-0.8,4.8-2.8,5c-3.6,0.3-6-1.5-8.1-3.9c-0.3-0.4-0.3-1-0.5-1.5
						c-0.3,0.9-0.7,1.8-1,2.7c-0.3,1-1,1.4-1.9,1.4c-1.3,0.1-2.6,0.1-3.9,0c-0.3,0-0.7-0.5-0.9-0.8c-0.3-0.7-0.5-1.4-0.5-2.2
						c0.1-3.3,0.1-6.6,1.4-9.7c0.4-1.1,0.5-2.3,0.6-3.5c0.2-1.7,0.2-3.3,0.3-5c0-1.4,0.1-2.8,0.3-4.3c0.2-1.3-0.6-2.7-0.8-4.1
						c-0.2-1.4-0.2-2.9-0.3-4.4c-0.1-0.8-0.2-1.6-0.4-2.7c-1.1,1-2.1,1.9-3.1,2.6c-1.3,1-2.5,2-3.9,2.7c-2.6,1.5-5.3,2.8-8.4,3.5
						c-3.9,0.9-7.7,1.4-11.7,1.3c-2.2-0.1-3.8-0.9-4.3-2.5c-0.7-2.5,0.1-4.1,2.9-4.3c2-0.1,4,0,6,0c2.9,0,5.6-0.7,8.2-1.9
						c4.1-1.9,7.2-4.9,10.3-8c3-3,4.6-6.7,6.1-10.4c1.2-2.8,1.6-5.8,2.1-8.8c0.2-1.6,0.7-3.3,0.9-4.9c0.4-4.1,0.5-8.2,1-12.3
						c0.4-3.3,1.1-6.5,1.6-9.7c0.3-2,0.6-4.1,0.9-6.1c0.2-1.7,0.6-3.3,0.7-5c0-1.1-0.2-2.2-0.6-3.3c-0.6-1.8-1.4-3.7-2.2-5.4
						c-0.2-0.5-0.6-1-1.1-1.4c-0.8-0.7-1.7-1.2-2.5-1.9c-0.8-0.7-1.6-1.4-2.4-2.2c-0.8-0.7-0.4-1.6,0.5-2.1c1.9-1,3.9-0.6,5.8-0.9
						C-195.8,132.3-195.9,132.2-196.1,132z M-176.9,170.2c0.4,1.9-1.6,1.7-2.4,2.8c0.6-0.2,1.2-0.3,1.7-0.5
						C-176.1,172.1-176,171.5-176.9,170.2c-0.1-0.1-0.2-0.3-0.3-0.5c-0.5-1.4-0.5-1.5-1.9-0.8c-0.9,0.4-1.8,1.1-2.6,1.6
						c-1.5,1.1-3.1,2.1-4.6,3.2c0.3,0.1,0.5,0.1,0.6,0c2.2-1,4.5-2,6.7-3.2C-178.3,170.2-177.7,170-176.9,170.2z M-188.4,212.2
						c0.2,0.2,0.5,0.5,0.7,0.7c0.6-0.5,1.1-1,1.8-1.5c0.3-0.2,0.8-0.4,1.1-0.3c0.5,0.2,0.8,0.6,1.2,0c0.3-0.4,0.7-0.9,0.7-1.3
						c0-1.5,0.7-2.5,1.9-3.4c1-0.7,2.3-1.3,3-2.3c1.6-2.2,3.2-4.4,3.8-7.1c0.3-1.2,0.8-2.3,1.1-3.5c0.5-1.9,1-3.8,1.1-5.8
						c0.2-2.4,0.1-4.8,0-7.3c0-1.4-0.3-2.8-0.5-3.9c-1.1-1-2.2-2-3.3-3c-2.6,1.6-5.7,3.4-8.8,5.2c1.9-0.2,3.3-2,5.2-1.7
						c0.1-0.2,0.2-0.5,0.3-0.6c1-0.5,2.1-0.9,3.1-1.4c0.3-0.1,0.7-0.1,0.9,0c0.2,0.2,0.3,0.6,0.2,0.9c-0.2,0.4-0.5,0.7-0.9,0.9
						c-1.7,1-3.4,2-5.1,3.1c1.3-0.3,2.5-0.9,3.8-1.4c0.4-0.1,0.9,0.1,1.4,0.2c-0.2,0.4-0.3,1-0.6,1.3c-0.6,0.5-1.3,0.8-2,1.2
						c0,0.1,0.1,0.2,0.1,0.3c0.5-0.2,1.1-0.4,1.6-0.6c1.3-0.7,1.3-0.7,2.1,0.8c-0.8,0.6-1.6,1.1-2.5,1.7c-0.8,0.5-1.7,0.9-2.6,1.4
						c0,0.1,0.1,0.2,0.1,0.3c0.4-0.2,0.8-0.3,1.2-0.5c0.4-0.2,0.8-0.6,1.2-0.6c0.4,0,0.9,0.3,1.2,0.6c0.1,0.1-0.1,0.8-0.3,0.9
						c-0.9,0.6-2,1.2-2.9,1.7c-1.3,0.8-2.7,1.6-4,2.4c1.1-0.3,2.2-0.7,3.2-1.1c0.9-0.3,1.8-0.7,2.7-1c0.5-0.2,0.9-0.4,1.4-0.4
						c0.2,0,0.6,0.8,0.5,1c-0.2,0.4-0.7,0.7-1.1,0.9c-1.1,0.6-2.2,1.1-3.2,1.6c0,0.1,0.1,0.2,0.1,0.3c0.4-0.2,0.7-0.3,1.1-0.5
						c0.7-0.3,1.3,0.1,1.6,0.7c0.1,0.2-0.5,0.8-0.9,1c-0.8,0.5-1.7,0.7-2.5,1.1c-1.2,0.6-2.5,1.2-3.7,1.8c-0.7,0.3-1.5,0.6-2.3,0.9
						c0.1,0.1,0.1,0.3,0.2,0.4c1.4-0.6,2.9-1.2,4.3-1.9c2.1-1,2.1-1,3.5,0.7c0,0,0.1,0,0.1,0.1c0.8,1,0.6,2.2-0.5,2.9
						c-1.5,1-1.5,1-0.6,2.1c-0.9,0.6-1.8,1.3-2.5,1.8c0.2,0.7,0.6,1.3,0.6,1.9c0,0.4-0.6,0.7-1,1.1c-0.7,0.7-1.8,1.2-1.2,2.5
						c0.1,0.2-0.1,0.6-0.3,0.7C-185.3,209.7-186.8,210.9-188.4,212.2z M-196.1,207.6c-1.1,1-2.1,1.9-3.2,2.9
						c-0.3,0.2-0.8,0.2-1.1,0.2c0-0.4-0.1-0.8,0-1.1c0.1-0.3,0.3-0.6,0.6-1.1c-1.1,0.6-1.9,2.4-1.4,2.9c1.4,1.5,1.1,3.4,1.5,5.1
						c0.5,2.3,0.6,4.7,1,7.1c0.2,1.3,0.9,2.5,1.4,3.6c1.4-1.3,2.5-2.4,3.8-3.6c-0.7-0.4-1.4-0.7-2-1.2c-0.2-0.1-0.2-0.7-0.1-1
						c0.2-0.6,0.4-1.1,0.7-1.7c-1.4-0.7-0.6-1.4,0-2c-0.6-0.3-1.1-0.5-1.7-0.8c-0.1,0.1-0.3,0.3-0.4,0.4c-0.2,0.2-0.4,0.3-0.7,0.4
						c-0.8,0.2-1.4-0.3-1.2-1c0.3-1.1,0.8-2.3,1.1-3.2c-0.6-0.1-1.2-0.2-2-0.3C-199.1,210.8-197.3,209.5-196.1,207.6z M-191.8,167.4
						c-1.2-1.4-1.2-1.4,0.2-2.7c0.6-0.5,1.2-1,1.8-1.6c-1.2,0.4-2.3,0.7-3.6,1.2c-0.5,5.5-1,11.1-1.6,17.1c1.3-0.8,2.4-1.5,3.8-2.3
						c-1,0.2-1.7,0.4-2.4,0.3c-0.6,0-1-0.5-0.5-1c0.5-0.6,1.1-1.2,1.7-1.7c1-0.9,2.1-1.7,3.1-2.5c-0.1-0.1-0.1-0.2-0.2-0.2
						c-0.5,0.3-0.9,0.7-1.5,0.9c-0.7,0.3-1.4,0.6-2.2,0.7c-0.8,0.1-1.2-0.3-0.7-1.1c0.6-0.9,1.3-1.6,2-2.5c-0.3,0-0.6,0-0.9-0.1
						c-0.2-0.1-0.4-0.3-0.5-0.5c-0.1-0.2,0-0.5,0.1-0.6c0.4-0.4,0.8-0.7,1.2-1C-193,168.9-193,168.3-191.8,167.4z M-189.9,242.7
						c-0.3,0.3-0.7,0.6-1,0.8c-0.5,0.3-0.9,0.6-1.4,0.8c-0.6,0.2-0.8,0.5-0.7,1.2c0.5,2.1,4.4,3.6,6,3.3c0.4-0.1,0.9-0.9,0.8-1.2
						c-0.2-0.8-0.6-1.6-1.5-2C-188.9,245.1-190.2,244.6-189.9,242.7z M-179.4,134.9c0.3-1,0.4-1.9-0.3-2.7c-0.6-0.7-1.2-1.3-1.7-1.9
						c-0.8-1-1.6-1-2.7-0.5c-1,0.4-2.1,0.5-3.2,0.7c-1,0.2-1.9,0.4-2.9,0.7c2.4-0.3,4.8,0.4,5.5,1.8
						C-182.3,131.6-181.1,133.5-179.4,134.9z M-197.5,242.8c-1.3,0.2-2.3,0.3-3.2,0.4c-0.1,0-0.2,0.2-0.2,0.4
						c-0.1,1.1-0.2,2.2-0.2,3.3c0,0.4,0.5,1,0.8,1c0.6,0,1.5-0.2,1.7-0.6C-198.2,245.8-197.9,244.4-197.5,242.8z M-185,134
						c-1.3,0-2.9,0-4.4,0c0,0.1-0.1,0.2-0.1,0.3c0.7,0.8,1.4,1.7,2.2,2.3c1,0.8,0.7,1.7,0.7,2.7c1.6-0.2,1.9-0.8,1.4-2.5
						c0.2-0.3,0.5-0.7,0.5-1C-184.8,135.2-185,134.6-185,134z M-189.5,172.4c0.3-0.1,0.4-0.1,0.6-0.2c1.7-0.9,3.4-1.9,5-2.8
						c0.8-0.4,1.6-1,2.4-1.3c1.2-0.5,3.6-2.4,4.1-3.6c-2.4,1.2-4.9,2.4-7.3,3.6C-185.7,170.2-188.2,170.5-189.5,172.4z
						 M-183.8,157.6c0.1,0.1,0.1,0.2,0.2,0.4c2.8-1.1,5.6-2.2,8.5-3.4c-0.2-0.3-0.4-0.5-0.5-0.7c-0.3-1.1-0.8-1.1-1.5-0.4
						c-0.1,0.1-0.3,0.2-0.5,0.3C-179.6,155-181.7,156.3-183.8,157.6z M-225,219.2c-1.2,0.1-2.3,0.2-3.4,0.2c-0.9,0-1.9,0-2.8,0.1
						c-0.2,0-0.5,0.8-0.4,0.9c0.3,0.4,0.8,0.8,1.3,0.8c1.2,0.1,2.4,0,3.1,0C-226.3,220.4-225.7,219.8-225,219.2z M-163.8,165.1
						c-0.6,1.3-1.4,1-2.2,0.6c-0.6,0.9-1,1.8,0.1,2.6c0.7,0.5,1.5,1,2.4,0.2C-162.2,167.4-163.3,166.4-163.8,165.1z M-179.3,147.9
						c-1.8,1.2-3.7,2.5-5.7,3.8c0,0.1,0.1,0.1,0.1,0.2c2.4-1.1,4.8-2.2,7.2-3.3c-0.4-1.3-0.9-2.7-1.3-4.1
						C-179.1,145.5-179.2,146.5-179.3,147.9z M-201.7,205.2c0.1,0.1,0.2,0.1,0.3,0.2c1.3-0.9,2.6-1.9,3.7-2.7
						c-0.3-0.4-0.6-0.8-0.6-1.1c0-0.4,0.4-0.7,0.6-1.1c-1.2,0.2-1.8,1-2.3,2C-200.6,203.3-201.2,204.2-201.7,205.2z M-177.1,150.3
						c-2.8,1.8-5.4,3.4-8,5.1c0,0,0.1,0.1,0.1,0.1c2.8-1.4,5.6-2.8,8.5-4.2C-176.7,150.9-176.9,150.6-177.1,150.3z M-194.9,184.3
						c3.1-2.2,6.1-4.3,9.2-6.4c-0.1-0.1-0.1-0.2-0.2-0.3c-3.2,1.7-5.9,4.1-9.1,5.9C-195,183.8-195,184.1-194.9,184.3z M-195.1,204.9
						c1.4-0.9,2.7-1.8,4.2-2.8c-0.4-0.2-0.6-0.4-0.8-0.3c-0.9,0.3-1.8,0.7-2.7,1.1C-195.4,203.4-195.7,204-195.1,204.9z
						 M-194.9,230.5c0.8-1.4,1.6-2.9,2.3-4c-0.9,0.6-2.2,1.4-3.5,2.2C-195.8,229.2-195.3,229.8-194.9,230.5z M-183.8,119.5
						c0.1,0.1,0.2,0.3,0.3,0.4c0.6-0.1,1.3-0.2,1.9-0.4c0.8-0.3,0.4-0.9,0.2-1.3c-0.1-0.3-0.7-0.6-0.8-0.5
						C-182.8,118.2-183.3,118.9-183.8,119.5z M-191.8,158c1.9-1.3,3.7-2.5,5.4-3.8c-0.9,0.3-1.6,0.9-2.5,1.1
						c-0.8,0.3-1.5,1.5-2.7,0.2C-191.7,156.6-191.8,157.3-191.8,158z M-172.1,173.6c0.6-1,0.9-1.7,1.3-2.3c0-0.1-0.1-0.2-0.1-0.3
						c-1.1,0.7-2.1,0.7-2.8-0.6c-0.1,0.1-0.1,0.3-0.2,0.4C-173.4,171.6-172.8,172.4-172.1,173.6z M-179.3,160.9
						c0.1,0.1,0.1,0.3,0.2,0.4c1.9-0.9,3.7-1.8,5.6-2.7c-0.1-0.2-0.2-0.3-0.2-0.5C-175.6,159.1-177.5,160-179.3,160.9z
						 M-188.3,167.8c0,0.1,0,0.2,0,0.3c1-0.2,2-0.4,2.8-0.5c0.3-0.7,0.6-1.2,1-2C-185.9,166.4-187.1,167.1-188.3,167.8z
						 M-194.4,188.9c-1.4-0.5-1.4-0.6-0.4-1.5c0.4-0.4,0.9-0.8,1.3-1.2c-2.7,0-2.1,2.2-2.6,3.7c0.1,0.1,0.1,0.2,0.2,0.2
						C-195.4,189.6-194.9,189.3-194.4,188.9z M-174.3,156.4c-0.6-0.4-4.1,1.4-5.4,2.8c0.9-0.4,1.8-0.9,2.7-1.4
						C-176.1,157.3-175.2,156.9-174.3,156.4z M-187.4,226.2c1.5,0.1,3.5-1.7,3.5-2.9C-185,224.2-186.1,225.1-187.4,226.2z
						 M-168.1,164.4c-0.1-0.1-0.2-0.1-0.2-0.2c-0.8,1.3-1.7,2.6-2.5,3.9c0.1,0.1,0.2,0.1,0.3,0.2
						C-169.1,167.4-168.8,165.8-168.1,164.4z M-182.7,144.7c0.8-0.9,0.5-1.7-0.3-3c-0.6,0.7-1,1.3-1.6,2
						C-182.9,143.4-182.8,143.4-182.7,144.7z M-180.7,145.8c-1.2,0.9-2.4,1.7-3.5,2.6c0,0.1,0.1,0.1,0.1,0.2
						c1.2-0.6,2.5-1.1,3.6-1.7C-180.6,146.5-180.7,146.2-180.7,145.8z M-220.6,219.1c-1,0.7-1.8,1.3-2.9,2c0.7-0.1,1.2-0.3,1.7-0.3
						C-220.6,220.9-220.2,220.4-220.6,219.1z M-190.9,149.3c0.9-1.2,1.6-2.1,2.3-3.1c-0.5,0.2-0.8,0.9-1.2,0.9
						C-191.3,147.1-190.9,148.1-190.9,149.3z M-214,218.6c0.4-0.1,0.6,0,0.8-0.1c0.8-0.4,1.5-0.9,2.2-1.3c0.2-0.1,0.3-0.5,0.4-0.7
						c-0.3,0-0.6-0.1-0.8,0C-212.2,217-213,217.7-214,218.6z M-182.2,125.4c-0.9,0.4-1.8,0.7-2.6,1c-0.2,0.1-0.3,0.4-0.5,0.6
						c1-0.2,1.9-0.4,2.8-0.6C-182.4,126.1-182.3,125.7-182.2,125.4z M-208.2,214c0.1,0.1,0.2,0.2,0.4,0.3c0.4-1,1.6-1.5,1.9-2.6
						c-0.1-0.1-0.3-0.2-0.4-0.3C-207,212.3-207.6,213.2-208.2,214z M-182.7,212.6c-0.9,0.8-1.5,1.5-2.2,2.1c0.1,0.1,0.2,0.2,0.3,0.3
						C-184.3,214-182.7,214.3-182.7,212.6z M-191.4,231.5c-1.8,0.4-2.5,1.2-2.1,1.9C-192.9,232.8-192.2,232.2-191.4,231.5z
						 M-192.1,138.5c0,0,0.1,0.1,0.1,0.1c0.6-0.4,1.1-0.8,1.7-1.3c-0.2-0.3-0.4-0.6-0.6-0.9C-191.3,137.1-191.7,137.8-192.1,138.5z
						 M-187.5,230.1c0.1,0.1,0.1,0.2,0.2,0.3c0.9-0.7,1.7-1.5,2.6-2.2c-0.1-0.1-0.2-0.2-0.3-0.3
						C-185.8,228.6-186.6,229.4-187.5,230.1z M-192.4,144.6c0.1,0,0.2,0.1,0.3,0.1c0.2-0.6,0.5-1.1,0.8-1.8
						c-0.5,0.1-0.8,0.1-1.1,0.2C-192.4,143.6-192.4,144.1-192.4,144.6z"/>
					<path fill="#FFFFFF" d="M-188.4,212.2c1.6-1.3,3.1-2.6,4.7-3.9c0.2-0.2,0.4-0.5,0.3-0.7c-0.6-1.3,0.5-1.8,1.2-2.5
						c0.4-0.3,1-0.7,1-1.1c0-0.6-0.3-1.2-0.6-1.9c0.7-0.5,1.6-1.1,2.5-1.8c-0.9-1.1-0.9-1.1,0.6-2.1c1.1-0.7,1.3-1.9,0.5-2.9
						c0,0-0.1-0.1-0.1-0.1c-1.5-1.7-1.4-1.6-3.5-0.7c-1.4,0.7-2.9,1.3-4.3,1.9c-0.1-0.1-0.1-0.3-0.2-0.4c0.8-0.3,1.5-0.5,2.3-0.9
						c1.3-0.6,2.5-1.2,3.7-1.8c0.8-0.4,1.7-0.7,2.5-1.1c0.4-0.2,0.9-0.8,0.9-1c-0.2-0.6-0.8-1-1.6-0.7c-0.4,0.1-0.7,0.3-1.1,0.5
						c0-0.1-0.1-0.2-0.1-0.3c1.1-0.5,2.2-1.1,3.2-1.6c0.4-0.2,0.9-0.5,1.1-0.9c0.1-0.2-0.3-1-0.5-1c-0.5,0-0.9,0.2-1.4,0.4
						c-0.9,0.3-1.8,0.7-2.7,1c-1.1,0.4-2.1,0.8-3.2,1.1c1.3-0.8,2.7-1.6,4-2.4c1-0.6,2-1.1,2.9-1.7c0.2-0.2,0.4-0.8,0.3-0.9
						c-0.3-0.3-0.8-0.6-1.2-0.6c-0.4,0-0.8,0.4-1.2,0.6c-0.4,0.2-0.8,0.3-1.2,0.5c0-0.1-0.1-0.2-0.1-0.3c0.9-0.5,1.8-0.9,2.6-1.4
						c0.9-0.5,1.7-1.1,2.5-1.7c-0.8-1.4-0.8-1.4-2.1-0.8c-0.5,0.3-1.1,0.4-1.6,0.6c0-0.1-0.1-0.2-0.1-0.3c0.7-0.4,1.4-0.7,2-1.2
						c0.3-0.3,0.4-0.9,0.6-1.3c-0.5-0.1-1-0.3-1.4-0.2c-1.3,0.5-2.5,1.1-3.8,1.4c1.7-1,3.4-2,5.1-3.1c0.3-0.2,0.7-0.6,0.9-0.9
						c0.1-0.2,0-0.7-0.2-0.9c-0.2-0.1-0.6-0.1-0.9,0c-1.1,0.4-2.1,0.9-3.1,1.4c-0.1,0.1-0.2,0.4-0.3,0.6c-1.9-0.3-3.3,1.5-5.2,1.7
						c3.1-1.8,6.2-3.7,8.8-5.2c1.1,1,2.1,1.9,3.3,3c0.1,1.1,0.4,2.5,0.5,3.9c0.1,2.4,0.2,4.9,0,7.3c-0.2,1.9-0.7,3.9-1.1,5.8
						c-0.3,1.2-0.8,2.3-1.1,3.5c-0.7,2.7-2.2,4.9-3.8,7.1c-0.7,1-2,1.6-3,2.3c-1.2,0.8-1.9,1.9-1.9,3.4c0,0.4-0.4,0.9-0.7,1.3
						c-0.4,0.6-0.8,0.2-1.2,0c-0.3-0.1-0.8,0.1-1.1,0.3c-0.6,0.4-1.2,1-1.8,1.5C-187.9,212.7-188.1,212.5-188.4,212.2z"/>
					<path fill="#FFFFFF" d="M-196.1,207.6c-1.2,1.9-3,3.2-3.8,5.6c0.7,0.1,1.4,0.2,2,0.3c-0.4,1-0.8,2.1-1.1,3.2
						c-0.2,0.7,0.5,1.3,1.2,1c0.2-0.1,0.5-0.2,0.7-0.4c0.2-0.1,0.3-0.3,0.4-0.4c0.6,0.3,1.1,0.5,1.7,0.8c-0.6,0.6-1.4,1.2,0,2
						c-0.2,0.6-0.5,1.1-0.7,1.7c-0.1,0.3-0.1,0.9,0.1,1c0.6,0.4,1.3,0.8,2,1.2c-1.3,1.2-2.4,2.3-3.8,3.6c-0.5-1.2-1.1-2.4-1.4-3.6
						c-0.5-2.3-0.5-4.7-1-7.1c-0.4-1.7-0.1-3.6-1.5-5.1c-0.5-0.5,0.3-2.3,1.4-2.9c-0.3,0.5-0.5,0.8-0.6,1.1c-0.1,0.3,0,0.7,0,1.1
						c0.4-0.1,0.9,0,1.1-0.2C-198.2,209.5-197.2,208.6-196.1,207.6z"/>
					<path fill="#FFFFFF" d="M-191.8,167.4c-1.2,0.9-1.2,1.6,0,2.4c-0.4,0.3-0.9,0.7-1.2,1c-0.1,0.1-0.2,0.4-0.1,0.6
						c0.1,0.2,0.3,0.4,0.5,0.5c0.3,0.1,0.6,0.1,0.9,0.1c-0.7,0.9-1.4,1.6-2,2.5c-0.5,0.7-0.2,1.2,0.7,1.1c0.7-0.1,1.5-0.4,2.2-0.7
						c0.5-0.2,1-0.6,1.5-0.9c0.1,0.1,0.1,0.2,0.2,0.2c-1,0.8-2.1,1.7-3.1,2.5c-0.6,0.5-1.2,1.1-1.7,1.7c-0.5,0.6-0.1,1,0.5,1
						c0.7,0,1.4-0.2,2.4-0.3c-1.3,0.8-2.4,1.5-3.8,2.3c0.5-5.9,1.1-11.6,1.6-17.1c1.3-0.4,2.4-0.8,3.6-1.2c-0.7,0.6-1.2,1.1-1.8,1.6
						C-192.9,166-192.9,166-191.8,167.4z"/>
					<path fill="#FFFFFF" d="M-189.9,242.7c-0.3,1.9,1.1,2.4,2.1,2.9c1,0.4,1.3,1.2,1.5,2c0.1,0.3-0.5,1.1-0.8,1.2
						c-1.5,0.4-5.5-1.1-6-3.3c-0.2-0.8,0-1,0.7-1.2c0.5-0.2,1-0.5,1.4-0.8C-190.6,243.3-190.3,243-189.9,242.7z"/>
					<path fill="#FFFFFF" d="M-179.4,134.9c-1.7-1.4-2.9-3.3-5.4-2c-0.7-1.4-3.1-2-5.5-1.8c1-0.2,1.9-0.5,2.9-0.7
						c1.1-0.2,2.2-0.3,3.2-0.7c1.1-0.5,1.9-0.5,2.7,0.5c0.5,0.7,1.2,1.3,1.7,1.9C-179,133-179.1,133.9-179.4,134.9z"/>
					<path fill="#FFFFFF" d="M-197.5,242.8c-0.4,1.7-0.6,3.1-1.2,4.4c-0.2,0.4-1.1,0.6-1.7,0.6c-0.3,0-0.8-0.6-0.8-1
						c0-1.1,0.1-2.2,0.2-3.3c0-0.1,0.1-0.3,0.2-0.4C-199.8,243-198.8,242.9-197.5,242.8z"/>
					<path fill="#FFFFFF" d="M-185,134c0.1,0.6,0.3,1.2,0.3,1.8c0,0.3-0.3,0.6-0.5,1c0.6,1.8,0.3,2.3-1.4,2.5c0-1,0.3-1.9-0.7-2.7
						c-0.8-0.6-1.5-1.5-2.2-2.3c0-0.1,0.1-0.2,0.1-0.3C-187.9,134-186.4,134-185,134z"/>
					<path fill="#FFFFFF" d="M-189.5,172.4c1.3-1.9,3.8-2.2,4.9-4.2c2.4-1.2,4.9-2.4,7.3-3.6c-0.6,1.2-2.9,3.1-4.1,3.6
						c-0.8,0.3-1.6,0.8-2.4,1.3c-1.7,0.9-3.4,1.9-5,2.8C-189.1,172.3-189.3,172.3-189.5,172.4z"/>
					<path fill="#FFFFFF" d="M-176.9,170.2c-0.8-0.3-1.4,0-2.1,0.4c-2.2,1.1-4.5,2.1-6.7,3.2c-0.2,0.1-0.3,0.1-0.6,0
						c1.5-1.1,3-2.2,4.6-3.2c0.9-0.6,1.7-1.2,2.6-1.6c1.4-0.7,1.4-0.6,1.9,0.8C-177.1,169.9-177,170.1-176.9,170.2L-176.9,170.2z"/>
					<path fill="#FFFFFF" d="M-183.8,157.6c2.1-1.3,4.2-2.6,6.3-3.9c0.2-0.1,0.3-0.2,0.5-0.3c0.7-0.7,1.2-0.7,1.5,0.4
						c0,0.2,0.2,0.3,0.5,0.7c-2.9,1.2-5.7,2.3-8.5,3.4C-183.7,157.8-183.8,157.7-183.8,157.6z"/>
					<path fill="#FFFFFF" d="M-225,219.2c-0.7,0.7-1.3,1.2-2.3,2.1c-0.7,0-1.9,0.1-3.1,0c-0.5,0-0.9-0.4-1.3-0.8
						c-0.1-0.1,0.2-0.9,0.4-0.9c0.9-0.1,1.9,0,2.8-0.1C-227.3,219.4-226.1,219.3-225,219.2z"/>
					<path fill="#FFFFFF" d="M-163.8,165.1c0.5,1.3,1.5,2.3,0.3,3.4c-0.9,0.8-1.7,0.3-2.4-0.2c-1.1-0.8-0.6-1.8-0.1-2.6
						C-165.2,166.1-164.4,166.4-163.8,165.1z"/>
					<path fill="#FFFFFF" d="M-179.3,147.9c0.1-1.3,0.2-2.4,0.3-3.3c0.4,1.4,0.9,2.8,1.3,4.1c-2.4,1.1-4.8,2.2-7.2,3.3
						c0-0.1-0.1-0.1-0.1-0.2C-183,150.4-181,149.1-179.3,147.9z"/>
					<path fill="#FFFFFF" d="M-201.7,205.2c0.6-0.9,1.1-1.9,1.7-2.8c0.5-1,1.2-1.7,2.3-2c-0.2,0.4-0.6,0.8-0.6,1.1
						c0,0.4,0.4,0.7,0.6,1.1c-1.2,0.9-2.5,1.8-3.7,2.7C-201.5,205.3-201.6,205.2-201.7,205.2z"/>
					<path fill="#FFFFFF" d="M-177.1,150.3c0.2,0.3,0.4,0.6,0.6,1c-2.9,1.4-5.7,2.8-8.5,4.2c0,0-0.1-0.1-0.1-0.1
						C-182.5,153.7-179.9,152-177.1,150.3z"/>
					<path fill="#FFFFFF" d="M-194.9,184.3c0-0.3,0-0.6,0-0.8c3.2-1.8,5.9-4.2,9.1-5.9c0.1,0.1,0.1,0.2,0.2,0.3
						C-188.8,180-191.8,182.1-194.9,184.3z"/>
					<path fill="#FFFFFF" d="M-195.1,204.9c-0.6-0.9-0.3-1.5,0.7-2c0.9-0.4,1.8-0.8,2.7-1.1c0.2-0.1,0.4,0.2,0.8,0.3
						C-192.4,203.1-193.7,204-195.1,204.9z"/>
					<path fill="#FFFFFF" d="M-194.9,230.5c-0.5-0.6-0.9-1.3-1.3-1.8c1.3-0.9,2.6-1.7,3.5-2.2C-193.3,227.6-194.1,229-194.9,230.5z"
						/>
					<path fill="#FFFFFF" d="M-183.8,119.5c0.5-0.6,1.1-1.2,1.6-1.8c0.1-0.1,0.7,0.3,0.8,0.5c0.2,0.4,0.6,1-0.2,1.3
						c-0.6,0.2-1.3,0.3-1.9,0.4C-183.6,119.7-183.7,119.6-183.8,119.5z"/>
					<path fill="#FFFFFF" d="M-191.8,158c0.1-0.8,0.1-1.5,0.2-2.4c1.2,1.2,1.9,0,2.7-0.2c0.9-0.3,1.6-0.8,2.5-1.1
						C-188.2,155.5-189.9,156.7-191.8,158z"/>
					<path fill="#FFFFFF" d="M-172.1,173.6c-0.7-1.1-1.2-2-1.8-2.8c0.1-0.1,0.1-0.3,0.2-0.4c0.7,1.3,1.7,1.4,2.8,0.6
						c0,0.1,0.1,0.2,0.1,0.3C-171.2,171.9-171.6,172.6-172.1,173.6z"/>
					<path fill="#FFFFFF" d="M-179.3,160.9c1.8-0.9,3.7-1.8,5.5-2.7c0.1,0.2,0.2,0.3,0.2,0.5c-1.9,0.9-3.7,1.8-5.6,2.7
						C-179.2,161.2-179.2,161-179.3,160.9z"/>
					<path fill="#FFFFFF" d="M-188.3,167.8c1.2-0.7,2.4-1.4,3.8-2.1c-0.4,0.8-0.6,1.3-1,2c-0.8,0.1-1.8,0.3-2.8,0.5
						C-188.3,168-188.3,167.9-188.3,167.8z"/>
					<path fill="#FFFFFF" d="M-194.4,188.9c-0.5,0.4-1,0.8-1.5,1.1c-0.1-0.1-0.1-0.2-0.2-0.2c0.5-1.5-0.1-3.7,2.6-3.7
						c-0.4,0.4-0.9,0.8-1.3,1.2C-195.8,188.3-195.7,188.3-194.4,188.9z"/>
					<path fill="#FFFFFF" d="M-174.3,156.4c-0.9,0.5-1.8,1-2.7,1.4c-0.9,0.5-1.8,1-2.7,1.4C-178.4,157.8-174.9,156-174.3,156.4z"/>
					<path fill="#FFFFFF" d="M-187.4,226.2c1.2-1,2.3-1.9,3.5-2.9C-183.8,224.5-185.9,226.3-187.4,226.2z"/>
					<path fill="#FFFFFF" d="M-168.1,164.4c-0.7,1.4-1,3-2.5,3.9c-0.1-0.1-0.2-0.1-0.3-0.2c0.8-1.3,1.7-2.6,2.5-3.9
						C-168.3,164.3-168.2,164.3-168.1,164.4z"/>
					<path fill="#FFFFFF" d="M-182.7,144.7c-0.1-1.3-0.2-1.3-1.9-0.9c0.6-0.7,1-1.3,1.6-2C-182.2,142.9-181.9,143.7-182.7,144.7z"/>
					<path fill="#FFFFFF" d="M-180.7,145.8c0.1,0.4,0.1,0.7,0.2,1.1c-1.2,0.5-2.4,1.1-3.6,1.7c0-0.1-0.1-0.1-0.1-0.2
						C-183.1,147.5-181.9,146.7-180.7,145.8z"/>
					<path fill="#FFFFFF" d="M-220.6,219.1c0.3,1.3,0,1.8-1.1,1.7c-0.5,0-1,0.2-1.7,0.3C-222.4,220.4-221.5,219.8-220.6,219.1z"/>
					<path fill="#FFFFFF" d="M-177,170.3c1,1.3,0.8,1.8-0.7,2.3c-0.5,0.2-1,0.3-1.7,0.5C-178.5,172-176.5,172.1-177,170.3
						C-176.9,170.2-177,170.3-177,170.3z"/>
					<path fill="#FFFFFF" d="M-190.9,149.3c0-1.1-0.4-2.1,1.1-2.2c0.3,0,0.7-0.7,1.2-0.9C-189.3,147.1-190,148.1-190.9,149.3z"/>
					<path fill="#FFFFFF" d="M-214,218.6c1-0.8,1.8-1.5,2.6-2.2c0.2-0.1,0.5,0,0.8,0c-0.1,0.2-0.2,0.6-0.4,0.7
						c-0.7,0.5-1.5,0.9-2.2,1.3C-213.3,218.5-213.6,218.5-214,218.6z"/>
					<path fill="#FFFFFF" d="M-182.2,125.4c-0.1,0.3-0.2,0.7-0.3,1.1c-0.9,0.2-1.8,0.4-2.8,0.6c0.1-0.2,0.2-0.5,0.5-0.6
						C-184,126.1-183.2,125.8-182.2,125.4z"/>
					<path fill="#FFFFFF" d="M-208.2,214c0.6-0.9,1.3-1.7,1.9-2.6c0.1,0.1,0.3,0.2,0.4,0.3c-0.3,1.1-1.5,1.5-1.9,2.6
						C-208,214.2-208.1,214.1-208.2,214z"/>
					<path fill="#FFFFFF" d="M-182.7,212.6c0,1.7-1.5,1.5-1.9,2.4c-0.1-0.1-0.2-0.2-0.3-0.3C-184.3,214-183.6,213.4-182.7,212.6z"/>
					<path fill="#FFFFFF" d="M-191.4,231.5c-0.8,0.8-1.5,1.4-2.1,1.9C-193.9,232.6-193.2,231.9-191.4,231.5z"/>
					<path fill="#FFFFFF" d="M-192.1,138.5c0.4-0.7,0.8-1.4,1.2-2.1c0.3,0.4,0.5,0.7,0.6,0.9c-0.6,0.4-1.2,0.8-1.7,1.3
						C-192,138.6-192,138.5-192.1,138.5z"/>
					<path fill="#FFFFFF" d="M-187.5,230.1c0.8-0.7,1.7-1.5,2.5-2.2c0.1,0.1,0.2,0.2,0.3,0.3c-0.9,0.7-1.7,1.5-2.6,2.2
						C-187.3,230.3-187.4,230.2-187.5,230.1z"/>
					<path fill="#FFFFFF" d="M-192.4,144.6c0-0.5,0-0.9,0-1.5c0.3-0.1,0.6-0.1,1.1-0.2c-0.3,0.6-0.5,1.2-0.8,1.8
						C-192.2,144.6-192.3,144.6-192.4,144.6z"/>
				</g>
			</g>
		</g>
	</g>
</g>
<g>
	<g>
		<defs>
			<polygon id="SVGID_5_" points="399.6,0 414.4,57.4 421.8,68 425,75.6 427.5,86.2 458.5,91.3 458.5,0 			"/>
		</defs>
		<clipPath id="SVGID_6_">
			<use xlink:href="#SVGID_5_"  overflow="visible"/>
		</clipPath>
		<g clip-path="url(#SVGID_6_)">
			<defs>
				<rect id="SVGID_7_" x="398.5" y="-1.1" width="61.2" height="93.5"/>
			</defs>
			<clipPath id="SVGID_8_">
				<use xlink:href="#SVGID_7_"  overflow="visible"/>
			</clipPath>
			<g clip-path="url(#SVGID_8_)">
				<g>
					<path d="M419.4,30.6c-1-1.3-2.1-2.5-2.8-3.9c-0.9-1.8-1.9-3.5-1.1-5.8c0.5-1.3,0.6-2.7,0.6-4.1c0-0.7-0.2-1.5-0.5-2.2
						c-0.4-1.2-0.7-2.3-0.3-3.5c0.1-0.2-0.1-0.5,0-0.8c0.1-1.2,0.1-2.5,0.3-3.7c0.2-0.8,1.3-1.1,2-0.5c1.2,1,2.3,2.1,3.4,3.2
						c0.6,0.6,1.3,1.2,1.9,1.7c0.1,0.1,0.3,0.2,0.5,0.1c1.7-0.6,3.3-0.1,4.9,0.1c0.2,0,0.6-0.1,0.7-0.3c1.1-1.9,3.1-2.8,4.6-4.1
						c0.6-0.6,1.7-0.9,2.5-0.9c0.5,0,1.4,0.8,1.5,1.3c0.2,1.3,0.2,2.7,0,3.9c-0.3,1.8-0.9,3.5-1.3,5.2c-0.1,0.3,0,0.7,0.2,0.9
						c1,1.6,2,3.3,3.2,4.9c2.2,2.9,4.1,6,5.7,9.2c0.9,1.8,1.3,3.8,1.4,5.8c0,3.9-0.1,7.8,0,11.7c0,1.1,0,2.3,0.3,3.5
						c0,0.2,0.2,0.3,0.3,0.5c0.2,0.3,0.5,0.7,0.4,0.9c-0.7,1.5,0.3,2.8,0.7,4.1c0.3,1.3,0.5,2.6,1.3,3.9c0.5,0.7,0.2,1.9,0.3,2.9
						c0.2,1.6,0.5,3.3,0.6,4.9c0.1,1.7-0.2,3.4-1.2,4.9c-1,1.5-1.8,3-2.7,4.5c2.9,0.6,5-0.9,6.9-2.8c0.1-0.1,0.2-0.5,0.1-0.7
						c-0.7-1.5-1.4-3-2.1-4.5c-0.4-0.9,0.4-2.5,1.2-3c1.7-1.1,3.2-0.3,4.8,0.1c2,0.6,2.3,1.8,2.2,3.7c-0.1,2.6-0.1,5.2,0,7.8
						c0.1,1.2-0.4,2-1.3,2.6c-1,0.8-2.2,1.5-3.3,2.2c-1,0.6-2.1,1.3-3.2,1.6c-1.4,0.4-3,0.6-4.5,0.9c-1,0.2-2,0.4-3,0.6
						c-0.3,0.1-0.5,0.2-0.8,0.2c-3.9,0.2-7.8-0.3-11.5-1.7c-2.5-1-4.9-2.3-7.4-3.4c-0.4-0.2-0.9-0.1-1.3-0.3
						c-0.5-0.3-0.8-0.8-1.3-1.2c-1.5-0.9-3-1.7-4.4-2.7c-0.9-0.6-1.6-1.5-2.3-2.2c-0.6-0.6-1.3-1.2-1.8-1.9c-0.7-1-1.5-2-2-3.1
						c-0.9-1.9-1.6-3.8-1.3-6c0.1-0.7,0.3-1.5,0.6-2.2c0.2-0.8,0.6-1.5,0.8-2.3c0.8-2.9,2.8-5.1,4.1-7.6c0.8-1.5,2.1-2.7,3.2-4.1
						c0.1-0.2,0.2-0.7,0.1-0.8c-1.2-0.8-0.8-2.2-1.3-3.2c-0.5-1.2-0.4-2.7-1.5-3.6c-0.1-0.1,0.1-0.6,0.1-0.9c0-0.9-0.2-1.9-0.2-2.8
						c-0.1-2.7,1.1-4.9,2.7-6.8C419.2,30.8,419.3,30.7,419.4,30.6z M426.2,22.9c0.5,0.8,1.9,1.4,2.8,1c0.3-0.1,0.5-0.5,0.8-0.7
						C428.4,23.1,427.3,23,426.2,22.9c-0.4-0.6-0.8-1.3-0.1-1.8c0.6-0.4,1.4-0.6,2.1-0.7c1.2-0.2,1.7,0.2,1.9,1.4
						c0,0.2,0.2,0.3,0.3,0.5c0.6-0.2,1.1-0.3,1.5-0.4c-0.1-0.5-0.2-1-0.3-1.6c-0.1-0.4-1.2-1.1-1.5-0.9c-0.7,0.6-1-0.1-1.3-0.4
						c-0.2-0.2,0-0.7,0-1c0.1-0.3,0.2-0.6,0.3-0.9c-0.1,0-0.1-0.1-0.2-0.1c-1,1-3,1-3,3c0,0.1-0.2,0.2-0.3,0.3
						c-0.5,0.7-1.2,1-2.1,1.1c-0.8,0.1-1.2,0-1.4-0.8c-0.1-0.4-0.1-0.8-0.2-1.2c-0.6,0.3-1.1,0.6-1.7,0.8c0.1,0.1,0.2,0.2,0.3,0.2
						c0.8,0.1,1.7,1.3,1.4,2.1c-0.1,0.2-0.5,0.6-0.6,0.6c-0.8-0.4-2,0.1-2.6-0.8c-0.3-0.4-0.5-0.7-0.8-1.2c-0.1,0.5-0.2,1-0.3,1.3
						c0.6,0.5,1.2,0.9,1.8,1.5c-0.5,0.3-0.7,0.5-1.2,0.8c1.2,1.5,2.3,3,3.5,4.3c1.4,1.4,3.7,1.5,5.1,0.5c0.9-0.7,2-1.2,2.9-1.9
						c0.5-0.3,0.9-0.7,1.3-1.1c-0.8-0.2-1.5-0.4-2.2-0.5c-1.6-0.2-2.9-0.8-4.1-1.9c-0.5-0.5-0.3-1,0.4-1.2
						C425.8,22.9,426,22.9,426.2,22.9z M434.8,43.5c0-0.1-0.1-0.2-0.1-0.3c-0.4,0.1-0.8,0.2-1.1,0.4c-2.5,1.4-5,2.8-7.6,4.1
						c-1.5,0.8-3.1,1.4-4.4,2.4c-1.1,0.9-1.8,2.3-2.7,3.5C423.9,49.8,429.5,47,434.8,43.5z M437.3,44c1.6-0.5,2.9-1,4.3-1.4
						c1.3-0.3,2.5-1.7,2.4-3c0-0.6,0-1.2,0-1.8c0-0.5-0.2-0.9-0.3-1.5c-0.9,0.6-1.7,1.1-2.4,1.6c0.3,0.2,1,0.5,1,0.6
						c-0.1,0.7-0.3,1.5-0.7,2c-0.7,0.8-1.7,1.4-2.6,2.1C438.5,43,438,43.5,437.3,44z M413.5,64.9c4.3-2.2,8.6-4.4,12.9-6.6
						c-1.1,0.2-2.2,0.4-3.2,0.8c-2.1,0.9-4.2,1.8-6.3,2.7c-0.6,0.2-1.1,0.7-1.8,0.3c-0.2-0.1-0.6,0-0.7,0.2
						C413.8,63.1,413.4,63.9,413.5,64.9z M420.2,14.6c-0.6-1.6-1.2-3.2-1.9-4.7c-0.1,0-0.2,0.1-0.3,0.1c-0.3,1.7,0.2,3.3,0.7,4.9
						c0.1,0.4,0.3,0.9,0.1,1.1c-1,1.4-0.1,3-0.8,4.4c0.6-0.1,1.1-0.2,1.7-0.4c-0.3-0.5-0.7-0.9-1-1.5c0.7-0.4,1.3-0.7,1.9-1
						C419,15.8,418.9,15.2,420.2,14.6z M436,52.8c0,0,0,0.1,0,0.1c0.9-0.2,1.8-0.3,2.6-0.6c1.5-0.7,3-1.5,4.5-2.3
						c0.5-0.3,0.9-0.5,0.6-1.2c-0.1-0.2-0.1-0.5-0.1-0.7c0.1-1.3,0.2-2.6,0.3-4c-0.5,0.3-0.9,0.5-1.3,0.7c-0.4,0.2-0.7,0.6-1.1,0.9
						c2.3,0.2,2.3,0.2,1.3,2.1c-0.7,0-1.4,0-2.1,0c0.6,0.7,1.1,1.3,1.7,2C440.3,50.8,438.1,51.8,436,52.8z M415.3,59.3
						c0,0,0.1,0.1,0.1,0.1c4.4-1.9,8.7-3.8,13.1-5.7c-1.2,0.1-2.3,0.3-3.3,0.7c-2,0.8-3.8,1.8-5.8,2.7c-0.3,0.1-0.6,0.3-0.8,0.2
						c-0.7-0.4-1.2-0.3-1.8,0.3C416.4,58.1,415.8,58.7,415.3,59.3z M415.8,71.8c0.8,0.9,1.5,1.8,2.3,2.7c0.1,0.1,0.6,0.2,0.8,0
						c0.8-0.5,1.5-1.1,2.3-1.6c1.2-0.7,2.4-1.2,3.6-1.9c0.6-0.3,1.1-0.7,1.7-1c-0.4-0.1-0.7,0.1-1,0.2c-2.1,0.9-4.2,1.8-6.3,2.6
						c-1.5,0.6-2.2,0-2.5-1.7C416.4,71.4,416.2,71.6,415.8,71.8z M435.1,9.4c-0.1-0.1-0.2-0.1-0.3-0.2c-0.5,0.4-1.5,0.8-1.5,1.2
						c0.1,1.2-0.7,2-1.1,2.9c-0.1,0.3-0.1,0.9,0.2,1.1c0.3,0.3,2.1-0.6,2.2-1.1C434.8,12.1,434.9,10.7,435.1,9.4z M447.2,64.6
						c-0.1-0.1-0.2-0.2-0.3-0.3c-3,2.1-6.4,3.7-9.3,5.9c3.4-0.8,6.1-3.1,9-4.7C446.9,65.2,447,64.9,447.2,64.6z M435.7,56.4
						c0,0.1,0,0.1,0.1,0.2c0.8-0.2,1.5-0.2,2.2-0.5c1.8-0.7,3.6-1.5,5.4-2.3c0.7-0.3,0.6-0.7,0.3-1.3c-0.8,0.4-1.5,0.8-2.2,1.1
						c-0.6,0.3-1.3,1-1.8,0.9c-0.7-0.1-1.1,0.3-1.6,0.5c-0.3,0.2-0.3,0.8-1,0.5C436.8,55.6,436.2,56.1,435.7,56.4z M444.1,56.7
						c0.9,0.5,1.1,1.3,0.4,1.9c-1.3,1.1-2.8,2.1-4.2,3.2c-0.2,0.1-0.3,0.3-0.5,0.5c0.1,0,0.1,0.1,0.2,0.1c2-1.1,4-2.2,6.1-3.4
						c-0.2-0.8-0.5-1.5-0.7-2.3C445.1,56.1,444.7,55.9,444.1,56.7z M443.4,70.5c-0.1-0.1-0.1-0.2-0.2-0.2c-1.8,1-3.5,1.9-5.3,2.9
						c-1.6,0.9-3.3,1.8-4.9,2.8c0.1,0.1,0.1,0.2,0.2,0.4C436.8,74.7,440.1,72.6,443.4,70.5z M421.9,42.2c0.1,0.1,0.1,0.3,0.2,0.4
						c0.8-0.4,1.9-0.5,2.4-1.1c1-1.2,2.1-1.9,3.6-2.2c-0.1-1.3,1.2-1.4,1.8-2.2c-0.1-0.1-0.1-0.2-0.2-0.2
						C427.1,38.5,424.5,40.3,421.9,42.2z M433.9,26.3c0,0.1,0,0.1,0,0.2c0.2,0,0.4,0,0.6-0.1c0.7-0.3,1.5-0.7,2.2-1
						c0.3-0.1,0.7,0,1,0.1c0.1,0,0.2,0.6,0.1,0.7c-0.5,0.6,0.1,0.8,0.3,1.2c0.4-0.2,0.8-0.4,1.3-0.6c-0.6-1-1.2-2-1.7-3
						C436.4,24.7,435.1,25.5,433.9,26.3z M419.1,38.5c0.9-0.6,1.7-1.1,2.3-1.6c0.3-0.3,0.6-0.6,0.9-0.9c0.2-0.2,0.2-0.4,0.3-0.7
						c-0.3,0-0.5-0.1-0.8,0c-0.7,0.2-1.4,0.4-2.1,0.6c-0.3,0.1-0.7,0.3-0.7,0.5C419,36.9,419.1,37.6,419.1,38.5z M432.7,32.6
						c-2.9,1.7-6.1,2.8-8.7,5.2C427.2,36.6,429.8,34.4,432.7,32.6z M445.3,62.5c-0.1-0.1-0.1-0.1-0.2-0.2c-3.4,2-6.9,4.1-10.3,6.1
						C438.7,67.1,441.9,64.6,445.3,62.5z M435.4,20.4c0.1,1,0.1,1.9-0.7,2.7c-0.5,0.5-1,1-1.4,1.6c-0.2,0.2-0.3,0.5-0.4,0.8
						c0.1,0,0.1,0.1,0.2,0.1c1.2-0.9,2.5-1.8,3.7-2.7C436.4,22,435.9,21.2,435.4,20.4z M437.5,33.9c0.1,0.1,0.1,0.1,0.2,0.2
						c1.5-0.9,3-1.7,4.5-2.6c-0.4-0.9-0.6-0.9-1.2-0.5c-1.1,0.8-2.2,1.6-3.3,2.4C437.6,33.5,437.6,33.7,437.5,33.9z M419.6,34.7
						c1.3-0.7,2.4-1.3,3.5-2c-0.7-0.3-1.4-0.6-2-0.9C420.5,32.8,420.1,33.6,419.6,34.7z M437,82.5c-0.8,0.5-1.4,0.8-2,1.2
						c0.8,0.2,1.5,0.5,2.2,0.5c0.6,0,1.3-0.2,1.9-0.4c0.1-0.2,0.1-0.4,0.2-0.6C438.2,83.7,437.2,84,437,82.5z M443.5,33.4
						c-0.1-0.1-0.2-0.1-0.2-0.2c-1.2,0.7-2.3,1.4-3.5,2.1c0.1,0.1,0.1,0.2,0.2,0.3c1.1-0.5,2.2-1,3.3-1.5
						C443.4,34.1,443.4,33.7,443.5,33.4z M442.7,77.1c1.9,0.2,2.8-0.4,2.8-1.8C444.5,75.9,443.6,76.5,442.7,77.1z M436.9,59.6
						c1,0.3,1.9,0.3,2.5-0.7c0.1-0.2,0.5-0.4,0.8-0.5c0.3-0.2,0.7-0.4,1-0.6c0-0.1-0.1-0.2-0.1-0.3
						C439.6,58.2,438.3,58.9,436.9,59.6z M429.4,31.7c0.1,0.1,0.2,0.2,0.3,0.3c1.6-1.2,3.3-2.4,4.9-3.6c-0.1-0.1-0.1-0.2-0.2-0.3
						C432.8,29.3,431.1,30.5,429.4,31.7z M426.5,66.4c0-0.1-0.1-0.2-0.1-0.3c-0.8,0.3-1.6,0.6-2.5,0.9c0.1,0.2,0.1,0.3,0.2,0.5
						C424.9,67.1,425.7,66.8,426.5,66.4z M459,74.2c0-1.3-0.9-1.1-1.5-1.3c-0.2-0.1-0.7,0.3-1.1,0.5c0,0.1,0,0.2,0.1,0.3
						C457.4,73.1,458.2,73.3,459,74.2z M443.4,81.3c-0.7,0.1-1.1,0.2-1.8,0.3c0.6,0.4,1,0.7,1.3,1C443.1,82.3,443.2,81.9,443.4,81.3
						z M413.7,68.5c0.6-0.2,1.4-0.2,1.1-1.2C414.4,67.7,413.3,67.4,413.7,68.5z"/>
					<path fill="#FFFFFF" d="M426.2,22.9c-0.2,0-0.4,0.1-0.7,0.1c-0.7,0.1-0.9,0.7-0.4,1.2c1.2,1,2.5,1.7,4.1,1.9
						c0.7,0.1,1.3,0.3,2.2,0.5c-0.4,0.3-0.8,0.7-1.3,1.1c-1,0.7-2,1.2-2.9,1.9c-1.4,1-3.7,0.9-5.1-0.5c-1.3-1.3-2.3-2.8-3.5-4.3
						c0.5-0.3,0.7-0.5,1.2-0.8c-0.6-0.5-1.2-1-1.8-1.5c0.1-0.3,0.2-0.8,0.3-1.3c0.3,0.4,0.5,0.8,0.8,1.2c0.7,0.9,1.8,0.4,2.6,0.8
						c0.1,0,0.5-0.3,0.6-0.6c0.3-0.7-0.6-2-1.4-2.1c-0.1,0-0.2-0.1-0.3-0.2c0.6-0.3,1.1-0.5,1.7-0.8c0.1,0.5,0.2,0.8,0.2,1.2
						c0.2,0.9,0.5,0.9,1.4,0.8c0.9-0.1,1.5-0.4,2.1-1.1c0.1-0.1,0.3-0.2,0.3-0.3c0-2,2-2,3-3c0.1,0,0.1,0.1,0.2,0.1
						c-0.1,0.3-0.3,0.6-0.3,0.9c-0.1,0.3-0.2,0.8,0,1c0.3,0.4,0.6,1,1.3,0.4c0.3-0.3,1.4,0.4,1.5,0.9c0.1,0.5,0.2,1,0.3,1.6
						c-0.4,0.1-0.9,0.3-1.5,0.4c-0.1-0.1-0.2-0.3-0.3-0.5c-0.2-1.2-0.7-1.6-1.9-1.4c-0.7,0.1-1.5,0.3-2.1,0.7
						C425.4,21.6,425.8,22.3,426.2,22.9C426.2,22.9,426.2,22.9,426.2,22.9z M422,27c0-0.1,0.1-0.1,0.1-0.2c0.2,0,0.5,0,0.7,0
						c0.5-0.1,1.2,0.1,1.2-0.8c0-0.7-0.2-1.3-1-1.3c-0.5,0-1.1-0.2-1.6-0.1c-1,0.1-1.4,0.8-0.8,1.6C420.9,26.6,421.5,26.7,422,27z"
						/>
					<path fill="#FFFFFF" d="M434.8,43.5c-5.2,3.5-10.9,6.2-15.9,10.1c0.9-1.2,1.6-2.6,2.7-3.5c1.3-1,2.9-1.6,4.4-2.4
						c2.5-1.4,5-2.8,7.6-4.1c0.3-0.2,0.7-0.2,1.1-0.4C434.7,43.3,434.7,43.4,434.8,43.5z"/>
					<path fill="#FFFFFF" d="M437.3,44c0.6-0.5,1.2-1,1.8-1.4c0.9-0.7,1.8-1.3,2.6-2.1c0.4-0.5,0.6-1.3,0.7-2c0-0.1-0.6-0.4-1-0.6
						c0.7-0.5,1.5-1,2.4-1.6c0.1,0.6,0.2,1,0.3,1.5c0,0.6,0,1.2,0,1.8c0.1,1.3-1.2,2.7-2.4,3C440.2,43,438.9,43.5,437.3,44z"/>
					<path fill="#FFFFFF" d="M413.5,64.9c-0.1-1,0.3-1.8,0.9-2.5c0.1-0.2,0.6-0.3,0.7-0.2c0.7,0.4,1.2-0.1,1.8-0.3
						c2.1-0.9,4.2-1.9,6.3-2.7c1-0.4,2.1-0.6,3.2-0.8C422.1,60.5,417.8,62.7,413.5,64.9z"/>
					<path fill="#FFFFFF" d="M420.2,14.6c-1.3,0.6-1.3,1.2,0.4,3c-0.6,0.3-1.2,0.6-1.9,1c0.4,0.5,0.7,1,1,1.5
						c-0.5,0.1-1,0.2-1.7,0.4c0.7-1.4-0.2-3,0.8-4.4c0.2-0.2,0-0.8-0.1-1.1c-0.5-1.6-1-3.2-0.7-4.9c0.1,0,0.2-0.1,0.3-0.1
						C419,11.5,419.6,13,420.2,14.6z"/>
					<path fill="#FFFFFF" d="M436,52.8c2.2-1,4.3-2,6.5-3c-0.6-0.7-1.1-1.3-1.7-2c0.7,0,1.4,0,2.1,0c1-1.9,1-1.9-1.3-2.1
						c0.4-0.3,0.7-0.6,1.1-0.9c0.4-0.2,0.8-0.4,1.3-0.7c-0.1,1.4-0.2,2.7-0.3,4c0,0.2,0,0.5,0.1,0.7c0.3,0.7-0.1,1-0.6,1.2
						c-1.5,0.8-3,1.6-4.5,2.3c-0.8,0.3-1.7,0.4-2.6,0.6C436,52.8,436,52.8,436,52.8z"/>
					<path fill="#FFFFFF" d="M415.3,59.3c0.5-0.6,1.1-1.1,1.6-1.7c0.5-0.6,1.1-0.7,1.8-0.3c0.2,0.1,0.5-0.1,0.8-0.2
						c1.9-0.9,3.8-1.9,5.8-2.7c1-0.4,2.2-0.6,3.3-0.7c-4.4,1.9-8.7,3.8-13.1,5.7C415.4,59.3,415.3,59.3,415.3,59.3z"/>
					<path fill="#FFFFFF" d="M415.8,71.8c0.3-0.2,0.6-0.4,0.8-0.6c0.3,1.7,1.1,2.2,2.5,1.7c2.1-0.8,4.2-1.7,6.3-2.6
						c0.3-0.1,0.6-0.2,1-0.2c-0.6,0.3-1.1,0.7-1.7,1c-1.2,0.6-2.5,1.2-3.6,1.9c-0.8,0.5-1.5,1.1-2.3,1.6c-0.2,0.1-0.7,0.1-0.8,0
						C417.4,73.6,416.6,72.7,415.8,71.8z"/>
					<path fill="#FFFFFF" d="M435.1,9.4c-0.2,1.3-0.3,2.6-0.5,4c-0.1,0.5-1.8,1.4-2.2,1.1c-0.2-0.2-0.3-0.8-0.2-1.1
						c0.4-1,1.2-1.7,1.1-2.9c0-0.4,1-0.8,1.5-1.2C434.9,9.3,435,9.4,435.1,9.4z"/>
					<path fill="#FFFFFF" d="M447.2,64.6c-0.2,0.3-0.3,0.6-0.6,0.8c-3,1.6-5.6,3.9-9,4.7c3-2.2,6.3-3.8,9.3-5.9
						C447,64.4,447.1,64.5,447.2,64.6z"/>
					<path fill="#FFFFFF" d="M435.7,56.4c0.5-0.2,1.1-0.8,1.4-0.7c0.7,0.3,0.7-0.4,1-0.5c0.5-0.2,0.9-0.6,1.6-0.5
						c0.6,0.1,1.2-0.6,1.8-0.9c0.7-0.4,1.4-0.7,2.2-1.1c0.3,0.6,0.5,1-0.3,1.3c-1.8,0.7-3.6,1.6-5.4,2.3c-0.7,0.3-1.5,0.3-2.2,0.5
						C435.7,56.5,435.7,56.4,435.7,56.4z"/>
					<path fill="#FFFFFF" d="M444.1,56.7c0.6-0.8,1-0.7,1.2,0.1c0.2,0.7,0.4,1.5,0.7,2.3c-2,1.1-4.1,2.3-6.1,3.4
						c-0.1,0-0.1-0.1-0.2-0.1c0.2-0.2,0.3-0.4,0.5-0.5c1.4-1.1,2.9-2,4.2-3.2C445.2,58,445,57.2,444.1,56.7z"/>
					<path fill="#FFFFFF" d="M443.4,70.5c-3.3,2.1-6.6,4.2-10.2,5.8c-0.1-0.1-0.1-0.2-0.2-0.4c1.6-0.9,3.3-1.8,4.9-2.8
						c1.8-1,3.5-1.9,5.3-2.9C443.3,70.3,443.3,70.4,443.4,70.5z"/>
					<path fill="#FFFFFF" d="M421.9,42.2c2.6-1.8,5.2-3.6,7.8-5.4c0.1,0.1,0.1,0.2,0.2,0.2c-0.6,0.8-1.9,1-1.8,2.2
						c-1.4,0.4-2.6,1-3.6,2.2c-0.5,0.6-1.6,0.8-2.4,1.1C422,42.4,422,42.3,421.9,42.2z"/>
					<path fill="#FFFFFF" d="M433.9,26.3c1.2-0.8,2.4-1.6,3.8-2.5c0.6,1,1.2,2,1.7,3c-0.5,0.2-0.9,0.4-1.3,0.6
						c-0.2-0.4-0.8-0.6-0.3-1.2c0.1-0.1,0-0.7-0.1-0.7c-0.3-0.1-0.7-0.2-1-0.1c-0.8,0.3-1.5,0.6-2.2,1c-0.2,0.1-0.4,0-0.6,0.1
						C433.9,26.4,433.9,26.4,433.9,26.3z"/>
					<path fill="#FFFFFF" d="M419.1,38.5c0-0.9-0.1-1.5,0-2.1c0-0.2,0.4-0.4,0.7-0.5c0.7-0.2,1.4-0.4,2.1-0.6c0.2-0.1,0.5,0,0.8,0
						c-0.1,0.2-0.2,0.5-0.3,0.7c-0.3,0.3-0.5,0.7-0.9,0.9C420.7,37.4,420,37.8,419.1,38.5z"/>
					<path fill="#FFFFFF" d="M432.7,32.6c-2.9,1.8-5.5,4-8.7,5.2C426.5,35.4,429.7,34.3,432.7,32.6z"/>
					<path fill="#FFFFFF" d="M445.3,62.5c-3.4,2.2-6.6,4.6-10.5,5.9c3.4-2,6.9-4.1,10.3-6.1C445.1,62.3,445.2,62.4,445.3,62.5z"/>
					<path fill="#FFFFFF" d="M435.4,20.4c0.5,0.8,0.9,1.6,1.5,2.4c-1.2,0.9-2.5,1.8-3.7,2.7c-0.1,0-0.1-0.1-0.2-0.1
						c0.1-0.3,0.2-0.5,0.4-0.8c0.4-0.5,0.9-1.1,1.4-1.6C435.6,22.3,435.5,21.5,435.4,20.4z"/>
					<path fill="#FFFFFF" d="M437.5,33.9c0.1-0.2,0.1-0.4,0.2-0.5c1.1-0.8,2.2-1.6,3.3-2.4c0.6-0.5,0.8-0.4,1.2,0.5
						c-1.5,0.9-3,1.7-4.5,2.6C437.6,34,437.6,34,437.5,33.9z"/>
					<path fill="#FFFFFF" d="M419.6,34.7c0.5-1.1,1-1.9,1.5-2.9c0.6,0.3,1.3,0.6,2,0.9C421.9,33.4,420.9,34,419.6,34.7z"/>
					<path fill="#FFFFFF" d="M437,82.5c0.2,1.6,1.1,1.3,2.2,0.8c-0.1,0.2-0.1,0.4-0.2,0.6c-0.6,0.1-1.3,0.4-1.9,0.4
						c-0.7,0-1.3-0.3-2.2-0.5C435.7,83.3,436.3,82.9,437,82.5z"/>
					<path fill="#FFFFFF" d="M443.5,33.4c-0.1,0.2-0.1,0.6-0.3,0.7c-1.1,0.5-2.2,1-3.3,1.5c-0.1-0.1-0.1-0.2-0.2-0.3
						c1.2-0.7,2.3-1.4,3.5-2.1C443.3,33.3,443.4,33.4,443.5,33.4z"/>
					<path fill="#FFFFFF" d="M442.7,77.1c0.9-0.6,1.8-1.2,2.8-1.8C445.5,76.7,444.6,77.2,442.7,77.1z"/>
					<path fill="#FFFFFF" d="M436.9,59.6c1.4-0.7,2.8-1.4,4.2-2c0,0.1,0.1,0.2,0.1,0.3c-0.3,0.2-0.7,0.4-1,0.6
						c-0.3,0.2-0.6,0.3-0.8,0.5C438.8,59.9,437.9,59.9,436.9,59.6z"/>
					<path fill="#FFFFFF" d="M429.4,31.7c1.7-1.2,3.3-2.3,5-3.5c0.1,0.1,0.1,0.2,0.2,0.3c-1.6,1.2-3.3,2.4-4.9,3.6
						C429.6,31.9,429.5,31.8,429.4,31.7z"/>
					<path fill="#FFFFFF" d="M426.2,22.9c1.1,0.1,2.3,0.2,3.6,0.3c-0.3,0.2-0.5,0.6-0.8,0.7C428.1,24.2,426.7,23.6,426.2,22.9
						C426.2,22.9,426.2,22.9,426.2,22.9z"/>
					<path fill="#FFFFFF" d="M426.5,66.4c-0.8,0.3-1.6,0.7-2.4,1c-0.1-0.2-0.1-0.3-0.2-0.5c0.8-0.3,1.6-0.6,2.5-0.9
						C426.4,66.2,426.5,66.3,426.5,66.4z"/>
					<path fill="#FFFFFF" d="M459,74.2c-0.8-0.9-1.6-1.1-2.5-0.6c0-0.1,0-0.2-0.1-0.3c0.4-0.2,0.9-0.6,1.1-0.5
						C458,73.1,459,72.9,459,74.2z"/>
					<path fill="#FFFFFF" d="M443.4,81.3c-0.2,0.6-0.4,0.9-0.5,1.3c-0.4-0.3-0.7-0.6-1.3-1C442.3,81.5,442.7,81.4,443.4,81.3z"/>
					<path fill="#FFFFFF" d="M413.7,68.5c-0.4-1.1,0.6-0.8,1.1-1.2C415.1,68.3,414.3,68.3,413.7,68.5z"/>
					<path d="M422,27c-0.5-0.3-1.1-0.4-1.4-0.8c-0.6-0.8-0.2-1.6,0.8-1.6c0.5,0,1.1,0.1,1.6,0.1c0.9,0.1,1.1,0.6,1,1.3
						c0,0.8-0.7,0.7-1.2,0.8c-0.2,0-0.5,0-0.7,0C422.1,26.9,422,26.9,422,27z"/>
				</g>
			</g>
		</g>
	</g>
</g>
<g>
	<g>
		<defs>
			<rect id="SVGID_9_" x="-124.4" y="344.1" width="76.4" height="70.3"/>
		</defs>
		<clipPath id="SVGID_10_">
			<use xlink:href="#SVGID_9_"  overflow="visible"/>
		</clipPath>
		<g clip-path="url(#SVGID_10_)">
			<defs>
				<rect id="SVGID_11_" x="-125.6" y="343" width="78.7" height="72.5"/>
			</defs>
			<clipPath id="SVGID_12_">
				<use xlink:href="#SVGID_11_"  overflow="visible"/>
			</clipPath>
			<g clip-path="url(#SVGID_12_)">
				<g>
					<path d="M-65.4,391.6c-0.6,0.1-1.1,0.2-1.6,0.4c-1.4,0.6-2.8,1.1-4.4,0.9c-1.1-0.1-2.2-0.2-3.4-0.2c-0.4,0-0.9,0.3-1.3,0.4
						c-2.2,0.9-4.4,1.8-6.5,2.8c-3,1.3-6.2,1.7-9.5,1.9c-1.9,0.1-3.8,0.1-5.6,0.2c-1.5,0.1-2.9,0.2-4.4,0.2c-0.9,0-1.9-0.4-2.8-0.7
						c-1.2-0.3-2.4-0.5-3.6-1c-0.6-0.2-1-0.9-1.6-1.3c-1.2-0.8-2.4-1.6-3.6-2.4c-1.2-0.8-2.3-1.8-2.8-3.2c-0.2-0.6-0.5-1.3-0.8-1.9
						c-1.1-2.2,0.1-4.2,0.7-6.2c0.3-0.9,1.2-1.6,1.9-2.4c0.4-0.5,0.8-1,1.1-1.5c-0.1-0.6-0.3-1.3-0.3-2c0-0.2,0.6-0.5,1-0.7
						c0-0.1-0.1-0.3-0.2-0.6c-0.1,0-0.2,0.1-0.2,0.1c-0.4-0.2-1.2-0.4-1.3-0.7c-0.4-1.7-0.8-3.4-0.9-5.1c-0.2-2.6,1.1-4.8,2.7-6.8
						c0.5-0.6,0.8-1.6,1.8-1.3c-0.1-0.8-0.3-1.6-0.3-2.3c0-1.8,0.1-3.7,0.1-5.5c0.1-1.2,0.8-1.7,2-1.2c1.6,0.7,2.8,1.8,3.8,3.1
						c0.7,0.9,1.4,1.9,2.1,2.7c0.2,0.2,0.6,0.1,0.8,0.3c1.2,0.5,2.5,1.1,3.7,1.6c0.3,0.1,0.7,0.2,0.9,0.1c1-0.4,1.9-0.9,2.8-1.3
						c0.2-0.1,0.5-0.3,0.5-0.5c0.2-0.7,0.7-1,1.3-1.1c1.9-0.5,3-2,4.6-2.9c0.8-0.4,1.5-0.9,2.4-1.2c0.8-0.3,1.7-0.4,2.6-0.6
						c2-0.5,3.5,0.3,5.1,1.3c0.3,0.2,0.7,0.2,1,0.1c1.7-0.2,3.2,0.3,4.7,0.9c1,0.4,2,0.9,2.9,1.6c1.1,0.8,2.2,0.2,3.2,0.2
						c0.8,0,1.6,0.1,2.3,0.2c1,0.2,2,0.3,3,0.6c2.2,0.6,4.4,1.5,5.6,3.5c1,1.6,1.3,3.5,1.8,5.3c0.5,1.8,0.8,3.6,1.3,5.4
						c0.7,2.7,1.8,5.3,1.9,8.2c0,1.8,0.4,3.6-0.2,5.2c-0.7,1.8-1.5,3.6-2.4,5.3c-1.4,2.8-3.6,4.9-6.1,6.8c-1.4,1.1-2.8,2.3-4.1,3.5
						c-0.5,0.5-1,1-1.3,1.6c-0.6,1-0.1,2,1,3.1c0.7,0.7,1.2,1.7,1.7,2.6c0.1,0.1,0.1,0.2,0.1,0.3c-0.3,1.2-0.4,2.4-0.9,3.5
						c-0.4,1-1.8,1.5-2.9,1.2c-2-0.5-3.8-1.4-4.7-3.4c-0.8-1.7-1.8-3.3-2.3-5c-0.5-1.6-0.3-3.3,0.7-4.7c0.6-0.8,0.9-1.8,1.5-2.5
						C-68.8,394.9-67.2,393.4-65.4,391.6z M-67.5,381.7c0.1-0.1,0.3-0.1,0.4-0.2c1.3-1.6,2.6-3.1,4-4.8c-0.9,0-1.4,0.3-1.8,1
						c-0.4,0.7-1,1.3-1.4,1.9C-66.7,380.4-67.1,381.1-67.5,381.7c-0.6,0.8-1.1,1.5-1.8,2.4C-68.3,383.8-67.5,382.7-67.5,381.7z
						 M-99.6,386.5c0.1-0.4,0.2-0.8,0.3-1.2c-1.2-0.2-1.8-0.9-1-2.1c-0.7,0-1.3,0.2-1.8,0c-0.7-0.4-1.3-1-1.9-1.6
						c-0.2-0.2-0.2-0.7-0.1-1c0.1-0.2,0.6-0.5,0.8-0.4c1.2,0.7,1.9-0.3,2.7-0.8c-0.6-1.3-0.7-1.4-1.2-1.1c-1,0.8-1.7,0.3-2.2-0.6
						c-1.3,0.6-1.3,0.7-0.6,2.2c-1.9,0.8-3.8,1.7-5.8,0.3c0,0.4-0.1,0.7-0.1,0.9c0.4,0.4,0.7,0.7,1.1,1.1c-0.8,0.6-1.4,1.1-1.7,1.4
						c0.3,0.6,0.8,1.1,0.7,1.5c-0.1,0.5-0.7,1-1,1.3c0.5,0.3,1,0.6,1.6,0.9c0.1,0.1,0.2,0,0.3,0.1c1.8,0.4,3.8,0.4,5.1,2.1
						c0.1,0.1,0.2,0.2,0.3,0.1c0.8-0.2,1.7-0.5,2.5-0.8c-0.1-0.1-0.2-0.1-0.4-0.2c0-0.6-0.1-1.4,0.1-1.9
						C-101.3,385.9-100.5,386.3-99.6,386.5z M-75.6,386.8c0.1,0,0.2,0,0.3,0c0.1,0.5,0.3,1.2,0.2,1.3c-1,0.6-2,1.2-3.1,1.5
						c-0.9,0.2-1.9-0.3-3,0c-0.3,0.1-1-0.2-1.2-0.4c-0.4-0.7-0.6-0.3-1,0c-1.3,1-2.5,2-3.8,3c-1,0.8-2.1,1.6-3.1,2.4
						c1.6,0,3.1-0.1,4.4-0.5c2.1-0.7,4-1.8,6.1-2.5c1.8-0.5,3.2-1.5,4.6-2.6c2.1-1.6,2.2-2.1,0.8-3.7
						C-74.7,385.8-75.2,386.3-75.6,386.8z M-102.4,372.5c0.5-0.3,1-0.5,1.4-0.8c0.3-0.2,0.8-0.5,0.8-0.7c-0.1-0.4-0.3-0.9-0.7-1.1
						c-0.8-0.5-1.2-1.1-1.1-2c0-0.3,0-0.6,0-0.9c-1.5,0.7-2.8,1.7-4.2,2.1c-1.4,0.3-2.9,0.5-4.5,0.6c0,0.4,0.1,0.9,0.1,1.1
						c0.8,0,1.3,0,1.9,0c0.1,0,0.3,0.4,0.4,0.6c0.2,2,0.7,2.5,2.7,2.5c0.3,0,0.5,0.1,0.7,0.2c0.9,0.5,2.6,0,3-0.8
						C-102,373.2-102.2,373-102.4,372.5z M-91.7,372.4c-1.1,0.6-2.3,1.3-3.4,2c-0.9,0.5-1.8,1.2-2.6,1.8c-0.2,0.1-0.1,0.5-0.2,0.8
						c0.3,0,0.5,0,0.8,0c0.1,0,0.3-0.1,0.4-0.1c0.1,0.1,0.2,0.2,0.2,0.3c-0.5,0.5-1.1,1.1-1.6,1.6c0.6-0.2,1-0.5,1.5-0.8
						c1.2-0.7,2.3-1.4,3.4-2.2c0.4-0.3,0.7-0.8,0.9-1.2C-92,373.8-91.9,373.1-91.7,372.4z M-86.8,375c-0.6-0.3-1.2-0.5-1.9-0.8
						c0.7-1.2,1.3-2.2,1.9-3.3c-0.1,0-0.1-0.1-0.2-0.1c-1,1.3-2.1,2.7-3.2,4.1c0.6,0.2,1.1,0.4,1.7,0.6c-0.6,0.7-1.1,1.3-1.8,1.8
						c-1.3,1.1-2.7,2.1-4,3.1c-0.2,0.1-0.3,0.4-0.4,0.5c0.1,0.1,0.2,0.2,0.3,0.3c1.3-1,2.5-2.1,3.9-3C-89,377.3-87.5,376.6-86.8,375
						z M-91.1,362.9c0,0,0.1,0.1,0.1,0.1c0.3-0.4,0.5-0.8,0.8-1.1c0.8-0.6,0.3-1.5,0.7-2.1c0.7-1,1.5-2,2.4-2.8
						c0.6-0.6,1.6-0.7,2.2-1.3c0.7-0.8,1.4-0.8,2.3-0.4c0.1,0,0.1,0,0.2,0c0.1-0.3,0.2-0.5,0.4-1.1c-1.4,0.4-2.6,0.5-3.7,1
						c-1.2,0.6-2.3,1.4-3.5,2.2c-0.4,0.3-0.8,0.7-0.9,1.1C-90.5,359.9-90.8,361.4-91.1,362.9z M-76.1,374.8c-0.1,0-0.2-0.1-0.4-0.1
						c-1.2,1.6-2.3,3.2-3.5,4.7c0.8,0.5,1.5,0.4,1.9-0.4c0.1-0.2,0.4-0.3,0.6-0.3c0.7,0.1,1-0.4,1.2-0.9c0.3-0.8,0.7-1.3,1.7-1.2
						c0.2,0,0.4-0.1,0.7-0.2C-75,375.9-76.1,376.2-76.1,374.8z M-98.8,367.4c0,0.1,0,0.2,0,0.3c0.9-0.1,1.7-0.2,2.7-0.3
						c0.6-1.6,1.3-3.1,2-4.8c-1.3,0-2.4,1-2.3,2c0,0.2-0.2,0.5-0.3,0.6c-0.6,0.3-1.2,0.6-1.6,0.8c0.2,0.3,0.4,0.6,0.7,1
						C-98.2,367.2-98.5,367.3-98.8,367.4z M-55.3,375.5c1.3,0.2,1.4,0.9,1,1.8c-0.5,1.1-1,2.1-1.4,3.1c0.4,0.1,0.7,0.3,1,0.3
						c0.4,0,0.9,0,1.2-0.1c0.2-0.1,0.4-0.6,0.3-0.9c-0.3-1.7-0.7-3.4-1.1-5.3C-54.7,374.8-55,375.1-55.3,375.5z M-107,377.5
						c-0.8-0.8-1.6-1.5-2.4-2.3c-0.2-0.2-0.5-0.3-0.8-0.5c-0.1,0.3-0.3,0.5-0.4,0.8c-0.1,0.2,0,0.4,0,0.7c-0.3,0-0.4,0-0.6-0.1
						c0.7,0.6,1.3,1.2,2,1.6C-108.5,378.1-107.6,378.2-107,377.5z M-67.8,385.9c-0.1-0.1-0.1-0.1-0.2-0.2c-1.5,1.6-2.9,3.2-4.4,4.9
						c0.6,0,1.3,0,1.9,0c0.2,0,0.5-0.1,0.6-0.3C-69.2,388.9-68.5,387.4-67.8,385.9z M-68.8,365.7c0,0,0.1,0.1,0.1,0.1
						c0.9-1.1,1.8-2.2,2.7-3.2c0.8-1,1.1-2.8,3.1-2c0.2-0.4,0.4-0.7,0.7-1c-1.1-0.7-2-0.7-2.4,0C-66.1,361.6-67.4,363.6-68.8,365.7z
						 M-89,365.4c-0.1-0.1-0.1-0.2-0.2-0.3c-1,1.1-2.2,1.8-3.7,1.1c-0.1,0.1-0.1,0.2-0.2,0.3c0.5,0.8,0.9,1.6,1.4,2.5
						C-90.7,367.7-89.8,366.5-89,365.4z M-61,387.7c1.3-1.3,3.1-2.2,3.3-4.4C-59.4,384.3-59.9,386.3-61,387.7z M-112.3,373.5
						c1.2,0.5,1.5,0.3,1.7-1.1c0.1-0.5-0.1-0.9-0.7-0.9c-0.4,0-0.8-0.2-1.2-0.3C-112.4,371.9-112.3,372.7-112.3,373.5z M-78.6,371.3
						c0.1,0.1,0.3,0.2,0.4,0.3c1.5-2.1,3-4.3,4.5-6.4c-0.1-0.1-0.2-0.1-0.3-0.2C-75.5,367.1-77,369.2-78.6,371.3z M-70.8,374.4
						c0.1,0.1,0.2,0.2,0.3,0.3c1.7-2.2,3.3-4.4,5-6.6c-0.1-0.1-0.2-0.2-0.3-0.2C-67.5,370-69.2,372.2-70.8,374.4z M-61.8,375.2
						c0.9-1.3,1.8-2.7,2.7-4.1c-0.1-0.1-0.2-0.1-0.3-0.2c-1,1.3-2,2.6-2.9,3.6C-62.1,374.8-62,375-61.8,375.2z M-109.8,389.7
						c-0.4,0.4-0.7,0.8-1.1,1.2c0.4,0.2,0.9,0.5,1.4,0.8c0.4-0.4,0.8-0.7,1.2-1.1C-108.9,390.3-109.5,389.9-109.8,389.7z
						 M-76.9,364.8c0.1,0.1,0.3,0.2,0.4,0.3c1.3-1.8,2.5-3.5,3.8-5.3c-0.1-0.1-0.2-0.1-0.3-0.2C-74.3,361.3-75.6,363.1-76.9,364.8z
						 M-112.9,368.1c0.7,0.4,1.4,0.7,2,1c-0.1-1.4-0.4-1.6-1.7-2.2C-112.7,367.3-112.8,367.7-112.9,368.1z M-100.5,393.1
						c-0.8,0.6-1.7,1.1-2.6,1.8C-101.6,395.6-101.4,395-100.5,393.1z M-93.9,394.4c-0.6,0.1-1.1,0.3-1.6,0.2
						c-0.4-0.1-0.8-0.5-1.3-0.8c-0.2,0.2-0.5,0.6-0.9,1.1c1.4,0,2.5,0,3.7,0C-94,394.7-93.9,394.5-93.9,394.4z M-104.5,359.8
						c-0.6-0.8-0.9-1.3-1.5-2.1c0,1,0,1.7,0,2.6C-105.5,360.2-105,360-104.5,359.8z M-108.2,360.7c0.4-0.2,0.8-0.4,1.2-0.6
						c-1-0.8-1.3-1.9-1-3.1c0.1-0.4,0-0.8,0-1.2c-0.1,0-0.1,0-0.2,0C-108.2,357.4-108.2,359-108.2,360.7z M-82.3,356
						c-0.5,0.5-1,0.9-1.5,1.4c-0.4,0.4-0.8,0.9-1.3,1.4C-83,357.5-82.1,356.5-82.3,356z M-54.6,387.2c-1.7,1-1.8,1.3-1.5,2.4
						C-55.6,388.7-55.1,387.9-54.6,387.2z M-56.6,364.9c-0.1-0.3-0.3-0.7-0.5-1.4c-0.5,0.8-0.9,1.4-1.3,1.8
						C-57.8,365.2-57.3,365.1-56.6,364.9z M-97.5,387.2c-0.7-0.1-1.3-0.2-2.1-0.3c0.3,0.5,0.6,1,0.9,1.4
						C-98.2,387.8-97.8,387.5-97.5,387.2z M-64.1,388.3c-1.5-0.4-1.7-0.2-2.1,1C-65.5,389-64.8,388.6-64.1,388.3z M-85.3,378.1
						c-0.1-0.1-0.1-0.1-0.2-0.2c-0.5,0.2-0.9,0.4-1.4,0.6c0.4,0.3,0.7,0.6,1.1,1C-85.6,379-85.4,378.5-85.3,378.1z M-67,359
						c0-0.1-0.1-0.2-0.1-0.2c-0.5,0.2-1,0.3-1.8,0.6c0.6,0.3,0.9,0.4,1.2,0.5C-67.4,359.6-67.2,359.3-67,359z M-91,371.9
						c0.4-0.7,0.8-1.2,1.1-1.7c-0.4-0.1-0.7-0.2-1-0.2C-90.9,370.6-90.9,371.1-91,371.9z"/>
					<path fill="#FFFFFF" d="M-99.6,386.5c-0.9-0.2-1.7-0.6-2.2,0.3c-0.3,0.5-0.1,1.3-0.1,1.9c0.1,0.1,0.2,0.1,0.4,0.2
						c-0.8,0.3-1.7,0.5-2.5,0.8c-0.1,0-0.3,0-0.3-0.1c-1.3-1.7-3.3-1.6-5.1-2.1c-0.1,0-0.2,0-0.3-0.1c-0.5-0.3-1.1-0.6-1.6-0.9
						c0.2-0.3,0.8-0.7,1-1.3c0.1-0.4-0.4-0.9-0.7-1.5c0.4-0.3,1-0.8,1.7-1.4c-0.4-0.4-0.7-0.7-1.1-1.1c0-0.1,0-0.4,0.1-0.9
						c2,1.4,3.9,0.4,5.8-0.3c-0.8-1.5-0.7-1.6,0.6-2.2c0.5,0.9,1.1,1.3,2.2,0.6c0.4-0.3,0.6-0.1,1.2,1.1c-0.8,0.5-1.5,1.5-2.7,0.8
						c-0.1-0.1-0.7,0.2-0.8,0.4c-0.1,0.3-0.1,0.8,0.1,1c0.6,0.6,1.2,1.2,1.9,1.6c0.4,0.2,1.1,0,1.8,0c-0.8,1.2-0.2,1.8,1,2.1
						C-99.4,385.8-99.5,386.1-99.6,386.5z"/>
					<path fill="#FFFFFF" d="M-75.6,386.8c0.4-0.5,0.8-1,1.3-1.6c1.4,1.7,1.3,2.1-0.8,3.7c-1.4,1.1-2.8,2.1-4.6,2.6
						c-2.1,0.6-4,1.8-6.1,2.5c-1.4,0.5-2.9,0.5-4.4,0.5c1-0.8,2.1-1.6,3.1-2.4c1.3-1,2.6-2,3.8-3c0.3-0.3,0.6-0.7,1,0
						c0.2,0.3,0.8,0.5,1.2,0.4c1-0.3,2,0.2,3,0c1.1-0.3,2.1-0.9,3.1-1.5c0.1-0.1-0.1-0.9-0.2-1.3C-75.4,386.8-75.5,386.8-75.6,386.8
						z"/>
					<path fill="#FFFFFF" d="M-102.4,372.5c0.2,0.4,0.3,0.7,0.4,0.9c-0.4,0.9-2,1.3-3,0.8c-0.2-0.1-0.5-0.2-0.7-0.2
						c-2,0-2.5-0.6-2.7-2.5c0-0.2-0.2-0.6-0.4-0.6c-0.5-0.1-1.1,0-1.9,0c0-0.2,0-0.6-0.1-1.1c1.6-0.1,3.1-0.3,4.5-0.6
						c1.5-0.3,2.8-1.3,4.2-2.1c0,0.3,0,0.6,0,0.9c-0.1,0.9,0.3,1.5,1.1,2c0.3,0.2,0.6,0.7,0.7,1.1c0,0.2-0.5,0.5-0.8,0.7
						C-101.4,372-101.9,372.3-102.4,372.5z M-102.8,372.7c-0.9-0.6,0.4-1.7-0.9-2.2c-0.9-0.3-1.6-0.1-2.4,0c-1.6,0.4-1.5,0.4-1.1,3
						C-105.8,373.3-104.4,373-102.8,372.7z"/>
					<path fill="#FFFFFF" d="M-91.7,372.4c-0.2,0.7-0.3,1.4-0.6,2.1c-0.2,0.5-0.5,1-0.9,1.2c-1.1,0.8-2.3,1.5-3.4,2.2
						c-0.5,0.3-0.9,0.6-1.5,0.8c0.5-0.5,1.1-1.1,1.6-1.6c-0.1-0.1-0.2-0.2-0.2-0.3c-0.1,0-0.3,0.1-0.4,0.1c-0.3,0-0.5,0-0.8,0
						c0.1-0.3,0-0.6,0.2-0.8c0.8-0.6,1.7-1.2,2.6-1.8C-94,373.6-92.8,373-91.7,372.4z"/>
					<path fill="#FFFFFF" d="M-86.8,375c-0.7,1.6-2.2,2.3-3.5,3.2c-1.4,0.9-2.6,2-3.9,3c-0.1-0.1-0.2-0.2-0.3-0.3
						c0.1-0.2,0.2-0.4,0.4-0.5c1.3-1,2.7-2,4-3.1c0.6-0.5,1.1-1.2,1.8-1.8c-0.6-0.2-1.1-0.4-1.7-0.6c1.1-1.4,2.1-2.8,3.2-4.1
						c0.1,0,0.1,0.1,0.2,0.1c-0.6,1.1-1.2,2.1-1.9,3.3C-88,374.5-87.4,374.7-86.8,375z"/>
					<path fill="#FFFFFF" d="M-91.1,362.9c0.3-1.5,0.6-3,1-4.4c0.1-0.4,0.5-0.8,0.9-1.1c1.1-0.8,2.2-1.6,3.5-2.2
						c1.1-0.5,2.3-0.6,3.7-1c-0.2,0.6-0.3,0.8-0.4,1.1c-0.1,0-0.2,0-0.2,0c-0.8-0.3-1.5-0.4-2.3,0.4c-0.6,0.6-1.6,0.8-2.2,1.3
						c-0.9,0.8-1.7,1.8-2.4,2.8c-0.4,0.6,0.1,1.5-0.7,2.1c-0.4,0.3-0.6,0.7-0.8,1.1C-91.1,362.9-91.1,362.9-91.1,362.9z"/>
					<path fill="#FFFFFF" d="M-76.1,374.8c0,1.4,1.1,1.1,2.2,1.7c-0.2,0.1-0.4,0.2-0.7,0.2c-0.9-0.1-1.4,0.4-1.7,1.2
						c-0.2,0.5-0.5,1-1.2,0.9c-0.2,0-0.5,0.1-0.6,0.3c-0.5,0.8-1.1,0.9-1.9,0.4c1.2-1.6,2.3-3.1,3.5-4.7
						C-76.4,374.7-76.2,374.8-76.1,374.8z"/>
					<path fill="#FFFFFF" d="M-98.8,367.4c0.3-0.1,0.6-0.2,1.1-0.3c-0.3-0.4-0.5-0.7-0.7-1c0.5-0.2,1.1-0.5,1.6-0.8
						c0.2-0.1,0.3-0.4,0.3-0.6c0-1,1.1-2.1,2.3-2c-0.7,1.6-1.3,3.2-2,4.8c-1,0.1-1.8,0.2-2.7,0.3C-98.8,367.6-98.8,367.5-98.8,367.4
						z"/>
					<path fill="#FFFFFF" d="M-55.3,375.5c0.4-0.5,0.6-0.7,1.1-1.3c0.4,1.9,0.8,3.6,1.1,5.3c0.1,0.3-0.1,0.8-0.3,0.9
						c-0.3,0.2-0.8,0.2-1.2,0.1c-0.3,0-0.6-0.2-1-0.3c0.4-1,0.9-2,1.4-3.1C-53.9,376.4-54,375.8-55.3,375.5z"/>
					<path fill="#FFFFFF" d="M-107,377.5c-0.7,0.7-1.5,0.6-2.3,0.2c-0.7-0.4-1.3-1-2-1.6c0.2,0,0.4,0,0.6,0.1c0-0.2-0.1-0.5,0-0.7
						c0.1-0.3,0.3-0.5,0.4-0.8c0.3,0.2,0.6,0.3,0.8,0.5C-108.5,376-107.8,376.7-107,377.5z"/>
					<path fill="#FFFFFF" d="M-67.8,385.9c-0.7,1.5-1.4,3-2.1,4.4c-0.1,0.2-0.4,0.3-0.6,0.3c-0.6,0-1.3,0-1.9,0
						c1.5-1.7,3-3.3,4.4-4.9C-67.9,385.8-67.9,385.9-67.8,385.9z"/>
					<path fill="#FFFFFF" d="M-68.8,365.7c1.4-2,2.7-4.1,4.1-6.1c0.5-0.7,1.3-0.7,2.4,0c-0.2,0.3-0.4,0.7-0.7,1c-2-0.8-2.2,1-3.1,2
						c-0.9,1.1-1.8,2.2-2.7,3.2C-68.7,365.8-68.7,365.7-68.8,365.7z"/>
					<path fill="#FFFFFF" d="M-89,365.4c-0.9,1.2-1.7,2.3-2.6,3.6c-0.5-0.9-1-1.7-1.4-2.5c0.1-0.1,0.1-0.2,0.2-0.3
						c1.5,0.7,2.7,0,3.7-1.1C-89.1,365.2-89,365.3-89,365.4z"/>
					<path fill="#FFFFFF" d="M-61,387.7c1.2-1.4,1.6-3.3,3.3-4.4C-57.9,385.5-59.7,386.4-61,387.7z"/>
					<path fill="#FFFFFF" d="M-112.3,373.5c-0.1-0.8-0.1-1.6-0.1-2.3c0.4,0.1,0.8,0.3,1.2,0.3c0.6,0.1,0.8,0.4,0.7,0.9
						C-110.7,373.8-111,374-112.3,373.5z"/>
					<path fill="#FFFFFF" d="M-67.5,381.8c0.4-0.7,0.8-1.4,1.2-2c0.5-0.7,1-1.2,1.4-1.9c0.4-0.7,0.9-1,1.8-1c-1.4,1.6-2.7,3.2-4,4.8
						C-67.2,381.7-67.4,381.7-67.5,381.8L-67.5,381.8z"/>
					<path fill="#FFFFFF" d="M-78.6,371.3c1.6-2.1,3.1-4.2,4.7-6.3c0.1,0.1,0.2,0.1,0.3,0.2c-1.5,2.1-3,4.3-4.5,6.4
						C-78.3,371.5-78.5,371.4-78.6,371.3z"/>
					<path fill="#FFFFFF" d="M-70.8,374.4c1.7-2.2,3.3-4.4,5-6.5c0.1,0.1,0.2,0.2,0.3,0.2c-1.7,2.2-3.3,4.4-5,6.6
						C-70.6,374.6-70.7,374.5-70.8,374.4z"/>
					<path fill="#FFFFFF" d="M-61.8,375.2c-0.2-0.2-0.3-0.4-0.5-0.6c0.9-1.1,1.9-2.4,2.9-3.6c0.1,0.1,0.2,0.1,0.3,0.2
						C-60,372.5-60.9,373.9-61.8,375.2z"/>
					<path fill="#FFFFFF" d="M-109.8,389.7c0.3,0.2,0.9,0.6,1.5,0.9c-0.4,0.4-0.8,0.7-1.2,1.1c-0.5-0.3-1-0.6-1.4-0.8
						C-110.5,390.5-110.2,390.1-109.8,389.7z"/>
					<path fill="#FFFFFF" d="M-76.9,364.8c1.3-1.7,2.6-3.5,3.9-5.2c0.1,0.1,0.2,0.1,0.3,0.2c-1.3,1.8-2.5,3.5-3.8,5.3
						C-76.7,365-76.8,364.9-76.9,364.8z"/>
					<path fill="#FFFFFF" d="M-112.9,368.1c0.1-0.4,0.2-0.8,0.3-1.2c1.3,0.5,1.7,0.8,1.7,2.2C-111.5,368.7-112.1,368.4-112.9,368.1z
						"/>
					<path fill="#FFFFFF" d="M-100.5,393.1c-0.9,2-1.1,2.5-2.6,1.8C-102.1,394.2-101.3,393.6-100.5,393.1z"/>
					<path fill="#FFFFFF" d="M-93.9,394.4c0,0.1,0,0.3,0,0.5c-1.2,0-2.3,0-3.7,0c0.4-0.5,0.7-0.9,0.9-1.1c0.5,0.3,0.8,0.7,1.3,0.8
						C-95,394.7-94.5,394.5-93.9,394.4z"/>
					<path fill="#FFFFFF" d="M-104.5,359.8c-0.6,0.2-1.1,0.4-1.5,0.5c0-0.9,0-1.6,0-2.6C-105.4,358.5-105,359-104.5,359.8z"/>
					<path fill="#FFFFFF" d="M-108.2,360.7c0-1.7,0-3.3,0-4.9c0.1,0,0.1,0,0.2,0c0,0.4,0.1,0.8,0,1.2c-0.3,1.3,0,2.3,1,3.1
						C-107.4,360.3-107.8,360.5-108.2,360.7z"/>
					<path fill="#FFFFFF" d="M-82.3,356c0.2,0.6-0.7,1.6-2.7,2.8c0.4-0.5,0.8-0.9,1.3-1.4C-83.3,356.9-82.8,356.5-82.3,356z"/>
					<path fill="#FFFFFF" d="M-54.6,387.2c-0.5,0.8-1,1.5-1.5,2.4C-56.4,388.4-56.3,388.2-54.6,387.2z"/>
					<path fill="#FFFFFF" d="M-56.6,364.9c-0.7,0.2-1.2,0.3-1.8,0.4c0.3-0.5,0.7-1,1.3-1.8C-56.9,364.2-56.7,364.6-56.6,364.9z"/>
					<path fill="#FFFFFF" d="M-97.5,387.2c-0.3,0.3-0.7,0.7-1.2,1.1c-0.3-0.5-0.6-0.9-0.9-1.4C-98.8,387-98.1,387.1-97.5,387.2z"/>
					<path fill="#FFFFFF" d="M-64.1,388.3c-0.7,0.3-1.4,0.7-2.1,1C-65.9,388-65.6,387.9-64.1,388.3z"/>
					<path fill="#FFFFFF" d="M-85.3,378.1c-0.2,0.4-0.3,0.9-0.5,1.3c-0.4-0.3-0.7-0.6-1.1-1c0.5-0.2,1-0.4,1.4-0.6
						C-85.4,377.9-85.3,378-85.3,378.1z"/>
					<path fill="#FFFFFF" d="M-67.5,381.7c0,0.9-0.8,2-1.8,2.4C-68.6,383.2-68.1,382.5-67.5,381.7
						C-67.5,381.8-67.5,381.7-67.5,381.7z"/>
					<path fill="#FFFFFF" d="M-67,359c-0.2,0.3-0.5,0.5-0.7,0.8c-0.3-0.1-0.6-0.3-1.2-0.5c0.8-0.2,1.3-0.4,1.8-0.6
						C-67.1,358.8-67,358.9-67,359z"/>
					<path fill="#FFFFFF" d="M-91,371.9c0-0.8,0.1-1.3,0.1-1.9c0.3,0.1,0.6,0.1,1,0.2C-90.2,370.7-90.5,371.3-91,371.9z"/>
					<path d="M-102.8,372.7c-1.7,0.3-3,0.5-4.4,0.8c-0.5-2.6-0.5-2.6,1.1-3c0.8-0.2,1.5-0.4,2.4,0
						C-102.4,371-103.7,372.1-102.8,372.7z"/>
				</g>
			</g>
		</g>
	</g>
</g>
</svg>
