<?xml version="1.0" encoding="utf-8"?>
<!-- Generator: Adobe Illustrator 21.1.0, SVG Export Plug-In . SVG Version: 6.00 Build 0)  -->
<svg version="1.1" id="Layer_1" xmlns:sketch="http://www.bohemiancoding.com/sketch/ns"
	 xmlns="http://www.w3.org/2000/svg" xmlns:xlink="http://www.w3.org/1999/xlink" x="0px" y="0px" viewBox="0 0 30 30"
	 enable-background="new 0 0 30 30" xml:space="preserve">
<title>Rectangle 1</title>
<desc>Created with Sketch.</desc>
<path id="Rectangle-1" sketch:type="MSShapeGroup" d="M0,3c0-1.7,1.3-3,3-3h24c1.7,0,3,1.3,3,3v24c0,1.7-1.3,3-3,3H3
	c-1.7,0-3-1.3-3-3V3z"/>
<path fill="#FFFFFF" d="M16.9,25c-4.2,0-5.8-3.1-5.8-5.3v-6.5H9v-2.6c3-1.1,3.8-3.8,3.9-5.4C12.9,5,13,5,13.1,5H16v5.1h4v3h-4v6.2
	c0,0.8,0.3,2,1.8,2c0,0,0.1,0,0.1,0c0.5,0,1.2-0.2,1.6-0.3l1,2.8c-0.4,0.5-2,1.1-3.5,1.2C17,25,16.9,25,16.9,25z"/>
</svg>
